%TF.GenerationSoftware,KiCad,Pcbnew,10.0.3*%
%TF.CreationDate,2026-10-02T15:13:25-04:00*%
%TF.ProjectId,Motor_Speed_Controller,4d6f746f-725f-4537-9065-65645f436f6e,rev?*%
%TF.SameCoordinates,Original*%
%TF.FileFunction,Copper,L1,Top*%
%TF.FilePolarity,Positive*%
%FSLAX46Y46*%
G04 Gerber Fmt 4.6, Leading zero omitted, Abs format (unit mm)*
G04 Created by KiCad (PCBNEW 10.0.3) date 2026-10-02 15:13:25*
%MOMM*%
%LPD*%
G01*
G04 APERTURE LIST*
G04 Aperture macros list*
%AMRoundRect*
0 Rectangle with rounded corners*
0 $1 Rounding radius*
0 $2 $3 $4 $5 $6 $7 $8 $9 X,Y pos of 4 corners*
0 Add a 4 corners polygon primitive as box body*
4,1,4,$2,$3,$4,$5,$6,$7,$8,$9,$2,$3,0*
0 Add four circle primitives for the rounded corners*
1,1,$1+$1,$2,$3*
1,1,$1+$1,$4,$5*
1,1,$1+$1,$6,$7*
1,1,$1+$1,$8,$9*
0 Add four rect primitives between the rounded corners*
20,1,$1+$1,$2,$3,$4,$5,0*
20,1,$1+$1,$4,$5,$6,$7,0*
20,1,$1+$1,$6,$7,$8,$9,0*
20,1,$1+$1,$8,$9,$2,$3,0*%
G04 Aperture macros list end*
%TA.AperFunction,ComponentPad*%
%ADD10RoundRect,0.249999X-0.850001X0.850001X-0.850001X-0.850001X0.850001X-0.850001X0.850001X0.850001X0*%
%TD*%
%TA.AperFunction,ComponentPad*%
%ADD11C,2.200000*%
%TD*%
%TA.AperFunction,ComponentPad*%
%ADD12C,3.800000*%
%TD*%
%TA.AperFunction,ComponentPad*%
%ADD13RoundRect,0.250000X-0.550000X-0.550000X0.550000X-0.550000X0.550000X0.550000X-0.550000X0.550000X0*%
%TD*%
%TA.AperFunction,ComponentPad*%
%ADD14C,1.600000*%
%TD*%
%TA.AperFunction,ComponentPad*%
%ADD15RoundRect,0.250000X-0.750000X0.750000X-0.750000X-0.750000X0.750000X-0.750000X0.750000X0.750000X0*%
%TD*%
%TA.AperFunction,ComponentPad*%
%ADD16C,2.000000*%
%TD*%
%TA.AperFunction,ComponentPad*%
%ADD17RoundRect,0.250000X-1.050000X1.050000X-1.050000X-1.050000X1.050000X-1.050000X1.050000X1.050000X0*%
%TD*%
%TA.AperFunction,ComponentPad*%
%ADD18C,2.600000*%
%TD*%
%TA.AperFunction,ComponentPad*%
%ADD19RoundRect,0.249999X0.850001X-0.850001X0.850001X0.850001X-0.850001X0.850001X-0.850001X-0.850001X0*%
%TD*%
%TA.AperFunction,ComponentPad*%
%ADD20R,1.800000X1.800000*%
%TD*%
%TA.AperFunction,ComponentPad*%
%ADD21C,1.800000*%
%TD*%
%TA.AperFunction,ComponentPad*%
%ADD22R,3.000000X3.000000*%
%TD*%
%TA.AperFunction,ComponentPad*%
%ADD23C,3.000000*%
%TD*%
%TA.AperFunction,ComponentPad*%
%ADD24C,1.400000*%
%TD*%
%TA.AperFunction,ComponentPad*%
%ADD25R,1.905000X2.000000*%
%TD*%
%TA.AperFunction,ComponentPad*%
%ADD26O,1.905000X2.000000*%
%TD*%
%TA.AperFunction,ComponentPad*%
%ADD27RoundRect,0.250000X1.050000X-1.050000X1.050000X1.050000X-1.050000X1.050000X-1.050000X-1.050000X0*%
%TD*%
%TA.AperFunction,Conductor*%
%ADD28C,0.500000*%
%TD*%
G04 APERTURE END LIST*
D10*
%TO.P,D3,1,K_1*%
%TO.N,Net-(D3-K)*%
X143500000Y-83500000D03*
D11*
%TO.P,D3,2,A_2*%
%TO.N,Net-(D3-A)*%
X143500000Y-93660000D03*
%TD*%
D12*
%TO.P,REF\u002A\u002A,1*%
%TO.N,N/C*%
X79000000Y-101500000D03*
%TD*%
D13*
%TO.P,U1,1,GND_1*%
%TO.N,GND*%
X122190000Y-82880000D03*
D14*
%TO.P,U1,2,TRIG_2*%
%TO.N,Net-(U1-THRES)*%
X122190000Y-85420000D03*
%TO.P,U1,3,OUT_3*%
%TO.N,Net-(U1-OUT)*%
X122190000Y-87960000D03*
%TO.P,U1,4,~{RST}_4*%
%TO.N,Net-(D3-K)*%
X122190000Y-90500000D03*
%TO.P,U1,5,CONT_5*%
%TO.N,Net-(U1-CONT)*%
X129810000Y-90500000D03*
%TO.P,U1,6,THRES_6*%
%TO.N,Net-(U1-THRES)*%
X129810000Y-87960000D03*
%TO.P,U1,7,DISCH_7*%
%TO.N,Net-(D1-A)*%
X129810000Y-85420000D03*
%TO.P,U1,8,VCC_8*%
%TO.N,Net-(D3-K)*%
X129810000Y-82880000D03*
%TD*%
%TO.P,C1,1*%
%TO.N,Net-(U1-THRES)*%
X128250000Y-96750000D03*
%TO.P,C1,2*%
%TO.N,GND*%
X123250000Y-96750000D03*
%TD*%
D15*
%TO.P,C3,1*%
%TO.N,Net-(D3-K)*%
X97250000Y-74882323D03*
D16*
%TO.P,C3,2*%
%TO.N,GND*%
X97250000Y-79882323D03*
%TD*%
D12*
%TO.P,REF\u002A\u002A,1*%
%TO.N,N/C*%
X158000000Y-101500000D03*
%TD*%
D17*
%TO.P,J1,1,Pin_1_1*%
%TO.N,GND*%
X84327500Y-82455000D03*
D18*
%TO.P,J1,2,Pin_2_2*%
%TO.N,Net-(D3-K)*%
X84327500Y-87535000D03*
%TD*%
D10*
%TO.P,D1,1,K_1*%
%TO.N,Net-(D1-K)*%
X104750000Y-89420000D03*
D11*
%TO.P,D1,2,A_2*%
%TO.N,Net-(D1-A)*%
X104750000Y-99580000D03*
%TD*%
D19*
%TO.P,D2,1,K_1*%
%TO.N,Net-(D1-A)*%
X111250000Y-99580000D03*
D11*
%TO.P,D2,2,A_2*%
%TO.N,Net-(D2-A)*%
X111250000Y-89420000D03*
%TD*%
D20*
%TO.P,D4,1,K_1*%
%TO.N,GND*%
X83960000Y-96500000D03*
D21*
%TO.P,D4,2,A_2*%
%TO.N,Net-(D4-A)*%
X86500000Y-96500000D03*
%TD*%
D14*
%TO.P,C2,1*%
%TO.N,Net-(U1-CONT)*%
X143500000Y-102500000D03*
%TO.P,C2,2*%
%TO.N,GND*%
X143500000Y-97500000D03*
%TD*%
D22*
%TO.P,RV1,1,1_1*%
%TO.N,Net-(D2-A)*%
X125000000Y-71500000D03*
D23*
%TO.P,RV1,2,2_2*%
%TO.N,Net-(U1-THRES)*%
X120000000Y-71500000D03*
%TO.P,RV1,3,3_3*%
%TO.N,Net-(D1-K)*%
X115000000Y-71500000D03*
%TD*%
D12*
%TO.P,REF\u002A\u002A,1*%
%TO.N,N/C*%
X79000000Y-70000000D03*
%TD*%
D24*
%TO.P,R2,1*%
%TO.N,Net-(U1-OUT)*%
X117000000Y-90810000D03*
%TO.P,R2,2*%
%TO.N,Net-(Q1-B)*%
X117000000Y-83190000D03*
%TD*%
%TO.P,R3,1*%
%TO.N,Net-(D3-K)*%
X92750000Y-90250000D03*
%TO.P,R3,2*%
%TO.N,Net-(D4-A)*%
X92750000Y-97870000D03*
%TD*%
%TO.P,R1,1*%
%TO.N,Net-(D3-K)*%
X98000000Y-90250000D03*
%TO.P,R1,2*%
%TO.N,Net-(D1-A)*%
X98000000Y-97870000D03*
%TD*%
D12*
%TO.P,REF\u002A\u002A,1*%
%TO.N,N/C*%
X158000000Y-70000000D03*
%TD*%
D25*
%TO.P,Q1,1,B_1*%
%TO.N,Net-(Q1-B)*%
X137747500Y-77500000D03*
D26*
%TO.P,Q1,2,C_2*%
%TO.N,Net-(D3-A)*%
X140287500Y-77500000D03*
%TO.P,Q1,3,E_3*%
%TO.N,GND*%
X142827500Y-77500000D03*
%TD*%
D27*
%TO.P,J2,1,Pin_1_1*%
%TO.N,Net-(D3-K)*%
X153922500Y-91045000D03*
D18*
%TO.P,J2,2,Pin_2_2*%
%TO.N,Net-(D3-A)*%
X153922500Y-85965000D03*
%TD*%
%TO.N,Net-(U1-THRES)*%
D28*
X124730000Y-87960000D02*
X122190000Y-85420000D01*
X129810000Y-87960000D02*
X124730000Y-87960000D01*
%TD*%
%TA.AperFunction,Conductor*%
%TO.N,GND*%
G36*
X157212293Y-67520185D02*
G01*
X157258048Y-67572989D01*
X157267992Y-67642147D01*
X157238967Y-67705703D01*
X157186209Y-67741541D01*
X157079917Y-67778734D01*
X156837005Y-67895714D01*
X156608712Y-68039161D01*
X156397915Y-68207265D01*
X156207265Y-68397915D01*
X156039161Y-68608712D01*
X155895714Y-68837005D01*
X155778734Y-69079917D01*
X155689687Y-69334397D01*
X155689684Y-69334405D01*
X155629688Y-69597268D01*
X155629686Y-69597280D01*
X155599500Y-69865186D01*
X155599500Y-70134813D01*
X155629686Y-70402719D01*
X155629688Y-70402731D01*
X155689684Y-70665594D01*
X155689687Y-70665602D01*
X155778734Y-70920082D01*
X155895714Y-71162994D01*
X155895716Y-71162997D01*
X156039162Y-71391289D01*
X156207266Y-71602085D01*
X156397915Y-71792734D01*
X156608711Y-71960838D01*
X156837003Y-72104284D01*
X157079921Y-72221267D01*
X157271049Y-72288145D01*
X157334397Y-72310312D01*
X157334405Y-72310315D01*
X157334408Y-72310315D01*
X157334409Y-72310316D01*
X157597268Y-72370312D01*
X157865187Y-72400499D01*
X157865188Y-72400500D01*
X157865191Y-72400500D01*
X158134812Y-72400500D01*
X158134812Y-72400499D01*
X158402732Y-72370312D01*
X158665591Y-72310316D01*
X158920079Y-72221267D01*
X159162997Y-72104284D01*
X159391289Y-71960838D01*
X159602085Y-71792734D01*
X159792734Y-71602085D01*
X159960838Y-71391289D01*
X160104284Y-71162997D01*
X160221267Y-70920079D01*
X160258460Y-70813787D01*
X160299180Y-70757014D01*
X160364133Y-70731267D01*
X160432695Y-70744723D01*
X160483097Y-70793111D01*
X160499500Y-70854745D01*
X160499500Y-100645254D01*
X160479815Y-100712293D01*
X160427011Y-100758048D01*
X160357853Y-100767992D01*
X160294297Y-100738967D01*
X160258459Y-100686209D01*
X160244128Y-100645254D01*
X160221267Y-100579921D01*
X160104284Y-100337003D01*
X159960838Y-100108711D01*
X159792734Y-99897915D01*
X159602085Y-99707266D01*
X159391289Y-99539162D01*
X159162997Y-99395716D01*
X159162994Y-99395714D01*
X158920082Y-99278734D01*
X158665602Y-99189687D01*
X158665594Y-99189684D01*
X158468446Y-99144687D01*
X158402732Y-99129688D01*
X158402728Y-99129687D01*
X158402719Y-99129686D01*
X158134813Y-99099500D01*
X158134809Y-99099500D01*
X157865191Y-99099500D01*
X157865186Y-99099500D01*
X157597280Y-99129686D01*
X157597268Y-99129688D01*
X157334405Y-99189684D01*
X157334397Y-99189687D01*
X157079917Y-99278734D01*
X156837005Y-99395714D01*
X156608712Y-99539161D01*
X156397915Y-99707265D01*
X156207265Y-99897915D01*
X156039161Y-100108712D01*
X155895714Y-100337005D01*
X155778734Y-100579917D01*
X155689687Y-100834397D01*
X155689684Y-100834405D01*
X155629688Y-101097268D01*
X155629686Y-101097280D01*
X155599500Y-101365186D01*
X155599500Y-101634813D01*
X155629686Y-101902719D01*
X155629688Y-101902731D01*
X155689684Y-102165594D01*
X155689687Y-102165602D01*
X155778734Y-102420082D01*
X155895714Y-102662994D01*
X155895716Y-102662997D01*
X156039162Y-102891289D01*
X156207266Y-103102085D01*
X156397915Y-103292734D01*
X156608711Y-103460838D01*
X156837003Y-103604284D01*
X157079921Y-103721267D01*
X157150411Y-103745932D01*
X157186209Y-103758459D01*
X157242985Y-103799180D01*
X157268732Y-103864133D01*
X157255276Y-103932695D01*
X157206888Y-103983098D01*
X157145254Y-103999500D01*
X143876425Y-103999500D01*
X143809386Y-103979815D01*
X143763631Y-103927011D01*
X143753687Y-103857853D01*
X143782712Y-103794297D01*
X143838106Y-103757569D01*
X143874669Y-103745688D01*
X143999219Y-103705220D01*
X144181610Y-103612287D01*
X144274590Y-103544732D01*
X144347213Y-103491971D01*
X144347215Y-103491968D01*
X144347219Y-103491966D01*
X144491966Y-103347219D01*
X144491968Y-103347215D01*
X144491971Y-103347213D01*
X144544732Y-103274590D01*
X144612287Y-103181610D01*
X144705220Y-102999219D01*
X144768477Y-102804534D01*
X144800500Y-102602352D01*
X144800500Y-102397648D01*
X144768477Y-102195466D01*
X144705220Y-102000781D01*
X144705218Y-102000778D01*
X144705218Y-102000776D01*
X144655255Y-101902719D01*
X144612287Y-101818390D01*
X144599857Y-101801281D01*
X144491971Y-101652786D01*
X144347213Y-101508028D01*
X144181613Y-101387715D01*
X144181612Y-101387714D01*
X144181610Y-101387713D01*
X144124653Y-101358691D01*
X143999223Y-101294781D01*
X143804534Y-101231522D01*
X143629995Y-101203878D01*
X143602352Y-101199500D01*
X143397648Y-101199500D01*
X143373329Y-101203351D01*
X143195465Y-101231522D01*
X143000776Y-101294781D01*
X142818386Y-101387715D01*
X142652786Y-101508028D01*
X142508028Y-101652786D01*
X142387715Y-101818386D01*
X142294781Y-102000776D01*
X142231522Y-102195465D01*
X142199500Y-102397648D01*
X142199500Y-102602351D01*
X142231522Y-102804534D01*
X142294781Y-102999223D01*
X142387715Y-103181613D01*
X142508028Y-103347213D01*
X142652786Y-103491971D01*
X142742359Y-103557048D01*
X142818390Y-103612287D01*
X142934607Y-103671503D01*
X143000776Y-103705218D01*
X143000778Y-103705218D01*
X143000781Y-103705220D01*
X143050169Y-103721267D01*
X143161894Y-103757569D01*
X143219569Y-103797007D01*
X143246767Y-103861366D01*
X143234852Y-103930212D01*
X143187608Y-103981688D01*
X143123575Y-103999500D01*
X79854746Y-103999500D01*
X79787707Y-103979815D01*
X79741952Y-103927011D01*
X79732008Y-103857853D01*
X79761033Y-103794297D01*
X79813791Y-103758459D01*
X79839608Y-103749424D01*
X79920079Y-103721267D01*
X80162997Y-103604284D01*
X80391289Y-103460838D01*
X80602085Y-103292734D01*
X80792734Y-103102085D01*
X80960838Y-102891289D01*
X81104284Y-102662997D01*
X81221267Y-102420079D01*
X81310316Y-102165591D01*
X81370312Y-101902732D01*
X81400500Y-101634809D01*
X81400500Y-101365191D01*
X81370312Y-101097268D01*
X81310316Y-100834409D01*
X81221267Y-100579921D01*
X81104284Y-100337003D01*
X80960838Y-100108711D01*
X80792734Y-99897915D01*
X80602085Y-99707266D01*
X80396845Y-99543593D01*
X80391287Y-99539160D01*
X80255816Y-99454038D01*
X103149500Y-99454038D01*
X103149500Y-99705962D01*
X103149707Y-99707266D01*
X103188910Y-99954785D01*
X103266760Y-100194383D01*
X103381132Y-100418848D01*
X103529201Y-100622649D01*
X103529205Y-100622654D01*
X103707345Y-100800794D01*
X103707350Y-100800798D01*
X103885117Y-100929952D01*
X103911155Y-100948870D01*
X104054184Y-101021747D01*
X104135616Y-101063239D01*
X104135618Y-101063239D01*
X104135621Y-101063241D01*
X104375215Y-101141090D01*
X104624038Y-101180500D01*
X104624039Y-101180500D01*
X104875961Y-101180500D01*
X104875962Y-101180500D01*
X105124785Y-101141090D01*
X105364379Y-101063241D01*
X105588845Y-100948870D01*
X105792656Y-100800793D01*
X105970793Y-100622656D01*
X106118870Y-100418845D01*
X106233241Y-100194379D01*
X106311090Y-99954785D01*
X106350500Y-99705962D01*
X106350500Y-99454038D01*
X106311090Y-99205215D01*
X106233241Y-98965621D01*
X106233239Y-98965618D01*
X106233239Y-98965616D01*
X106148853Y-98800000D01*
X106118870Y-98741155D01*
X106074431Y-98679990D01*
X106074425Y-98679982D01*
X109649500Y-98679982D01*
X109649500Y-100480017D01*
X109660000Y-100582796D01*
X109680697Y-100645254D01*
X109715186Y-100749335D01*
X109807288Y-100898656D01*
X109931344Y-101022712D01*
X110080665Y-101114814D01*
X110247202Y-101169999D01*
X110349990Y-101180500D01*
X110349995Y-101180500D01*
X112150005Y-101180500D01*
X112150010Y-101180500D01*
X112252798Y-101169999D01*
X112419335Y-101114814D01*
X112568656Y-101022712D01*
X112692712Y-100898656D01*
X112784814Y-100749335D01*
X112839999Y-100582798D01*
X112850500Y-100480010D01*
X112850500Y-98679990D01*
X112839999Y-98577202D01*
X112784814Y-98410665D01*
X112692712Y-98261344D01*
X112568656Y-98137288D01*
X112475890Y-98080070D01*
X112419337Y-98045187D01*
X112419332Y-98045185D01*
X112417863Y-98044698D01*
X112252798Y-97990001D01*
X112252796Y-97990000D01*
X112150017Y-97979500D01*
X112150010Y-97979500D01*
X110349990Y-97979500D01*
X110349982Y-97979500D01*
X110247203Y-97990000D01*
X110247202Y-97990001D01*
X110164669Y-98017349D01*
X110080667Y-98045185D01*
X110080662Y-98045187D01*
X109931342Y-98137289D01*
X109807289Y-98261342D01*
X109715187Y-98410662D01*
X109715186Y-98410665D01*
X109660001Y-98577202D01*
X109660001Y-98577203D01*
X109660000Y-98577203D01*
X109649500Y-98679982D01*
X106074425Y-98679982D01*
X105970798Y-98537350D01*
X105970794Y-98537345D01*
X105792654Y-98359205D01*
X105792649Y-98359201D01*
X105588848Y-98211132D01*
X105588847Y-98211131D01*
X105588845Y-98211130D01*
X105471065Y-98151118D01*
X105364383Y-98096760D01*
X105124785Y-98018910D01*
X105118976Y-98017990D01*
X104875962Y-97979500D01*
X104624038Y-97979500D01*
X104557738Y-97990001D01*
X104375214Y-98018910D01*
X104135616Y-98096760D01*
X103911151Y-98211132D01*
X103707350Y-98359201D01*
X103707345Y-98359205D01*
X103529205Y-98537345D01*
X103529201Y-98537350D01*
X103381132Y-98741151D01*
X103266760Y-98965616D01*
X103223259Y-99099500D01*
X103188910Y-99205215D01*
X103149500Y-99454038D01*
X80255816Y-99454038D01*
X80162994Y-99395714D01*
X79920082Y-99278734D01*
X79665602Y-99189687D01*
X79665594Y-99189684D01*
X79468446Y-99144687D01*
X79402732Y-99129688D01*
X79402728Y-99129687D01*
X79402719Y-99129686D01*
X79134813Y-99099500D01*
X79134809Y-99099500D01*
X78865191Y-99099500D01*
X78865186Y-99099500D01*
X78597280Y-99129686D01*
X78597268Y-99129688D01*
X78334405Y-99189684D01*
X78334397Y-99189687D01*
X78079917Y-99278734D01*
X77837005Y-99395714D01*
X77608712Y-99539161D01*
X77397915Y-99707265D01*
X77207265Y-99897915D01*
X77039161Y-100108712D01*
X76895714Y-100337005D01*
X76778734Y-100579917D01*
X76741541Y-100686209D01*
X76700820Y-100742985D01*
X76635867Y-100768732D01*
X76567305Y-100755276D01*
X76516902Y-100706888D01*
X76500500Y-100645254D01*
X76500500Y-95552155D01*
X82560000Y-95552155D01*
X82560000Y-96250000D01*
X83584722Y-96250000D01*
X83540667Y-96326306D01*
X83510000Y-96440756D01*
X83510000Y-96559244D01*
X83540667Y-96673694D01*
X83584722Y-96750000D01*
X82560000Y-96750000D01*
X82560000Y-97447844D01*
X82566401Y-97507372D01*
X82566403Y-97507379D01*
X82616645Y-97642086D01*
X82616649Y-97642093D01*
X82702809Y-97757187D01*
X82702812Y-97757190D01*
X82817906Y-97843350D01*
X82817913Y-97843354D01*
X82952620Y-97893596D01*
X82952627Y-97893598D01*
X83012155Y-97899999D01*
X83012172Y-97900000D01*
X83710000Y-97900000D01*
X83710000Y-96875277D01*
X83786306Y-96919333D01*
X83900756Y-96950000D01*
X84019244Y-96950000D01*
X84133694Y-96919333D01*
X84210000Y-96875277D01*
X84210000Y-97900000D01*
X84907828Y-97900000D01*
X84907844Y-97899999D01*
X84967372Y-97893598D01*
X84967379Y-97893596D01*
X85102086Y-97843354D01*
X85102093Y-97843350D01*
X85217187Y-97757190D01*
X85217190Y-97757187D01*
X85303350Y-97642093D01*
X85303354Y-97642086D01*
X85333213Y-97562031D01*
X85375084Y-97506097D01*
X85440548Y-97481680D01*
X85508821Y-97496531D01*
X85537076Y-97517683D01*
X85587636Y-97568243D01*
X85587641Y-97568247D01*
X85706214Y-97654394D01*
X85765978Y-97697815D01*
X85882501Y-97757187D01*
X85962393Y-97797895D01*
X85962396Y-97797896D01*
X86030673Y-97820080D01*
X86172049Y-97866015D01*
X86389778Y-97900500D01*
X86389779Y-97900500D01*
X86610221Y-97900500D01*
X86610222Y-97900500D01*
X86827951Y-97866015D01*
X87037606Y-97797895D01*
X87081533Y-97775513D01*
X91549500Y-97775513D01*
X91549500Y-97964486D01*
X91579059Y-98151118D01*
X91637454Y-98330836D01*
X91723240Y-98499199D01*
X91834310Y-98652073D01*
X91967927Y-98785690D01*
X92120801Y-98896760D01*
X92200347Y-98937290D01*
X92289163Y-98982545D01*
X92289165Y-98982545D01*
X92289168Y-98982547D01*
X92385497Y-99013846D01*
X92468881Y-99040940D01*
X92655514Y-99070500D01*
X92655519Y-99070500D01*
X92844486Y-99070500D01*
X93031118Y-99040940D01*
X93210832Y-98982547D01*
X93379199Y-98896760D01*
X93532073Y-98785690D01*
X93665690Y-98652073D01*
X93776760Y-98499199D01*
X93862547Y-98330832D01*
X93920940Y-98151118D01*
X93923130Y-98137288D01*
X93950500Y-97964486D01*
X93950500Y-97775513D01*
X96799500Y-97775513D01*
X96799500Y-97964486D01*
X96829059Y-98151118D01*
X96887454Y-98330836D01*
X96973240Y-98499199D01*
X97084310Y-98652073D01*
X97217927Y-98785690D01*
X97370801Y-98896760D01*
X97450347Y-98937290D01*
X97539163Y-98982545D01*
X97539165Y-98982545D01*
X97539168Y-98982547D01*
X97635497Y-99013846D01*
X97718881Y-99040940D01*
X97905514Y-99070500D01*
X97905519Y-99070500D01*
X98094486Y-99070500D01*
X98281118Y-99040940D01*
X98460832Y-98982547D01*
X98629199Y-98896760D01*
X98782073Y-98785690D01*
X98915690Y-98652073D01*
X99026760Y-98499199D01*
X99112547Y-98330832D01*
X99170940Y-98151118D01*
X99173130Y-98137288D01*
X99200500Y-97964486D01*
X99200500Y-97775513D01*
X99170940Y-97588881D01*
X99134237Y-97475922D01*
X99112547Y-97409168D01*
X99112545Y-97409165D01*
X99112545Y-97409163D01*
X99026759Y-97240800D01*
X99021837Y-97234025D01*
X98915690Y-97087927D01*
X98782073Y-96954310D01*
X98629199Y-96843240D01*
X98599193Y-96827951D01*
X98460836Y-96757454D01*
X98281118Y-96699059D01*
X98094486Y-96669500D01*
X98094481Y-96669500D01*
X97905519Y-96669500D01*
X97905514Y-96669500D01*
X97718881Y-96699059D01*
X97539163Y-96757454D01*
X97370800Y-96843240D01*
X97286630Y-96904394D01*
X97217927Y-96954310D01*
X97217925Y-96954312D01*
X97217924Y-96954312D01*
X97084312Y-97087924D01*
X97084312Y-97087925D01*
X97084310Y-97087927D01*
X97041793Y-97146446D01*
X96973240Y-97240800D01*
X96887454Y-97409163D01*
X96829059Y-97588881D01*
X96799500Y-97775513D01*
X93950500Y-97775513D01*
X93920940Y-97588881D01*
X93884237Y-97475922D01*
X93862547Y-97409168D01*
X93862545Y-97409165D01*
X93862545Y-97409163D01*
X93776759Y-97240800D01*
X93771837Y-97234025D01*
X93665690Y-97087927D01*
X93532073Y-96954310D01*
X93379199Y-96843240D01*
X93349193Y-96827951D01*
X93210836Y-96757454D01*
X93031118Y-96699059D01*
X92844486Y-96669500D01*
X92844481Y-96669500D01*
X92655519Y-96669500D01*
X92655514Y-96669500D01*
X92468881Y-96699059D01*
X92289163Y-96757454D01*
X92120800Y-96843240D01*
X92036630Y-96904394D01*
X91967927Y-96954310D01*
X91967925Y-96954312D01*
X91967924Y-96954312D01*
X91834312Y-97087924D01*
X91834312Y-97087925D01*
X91834310Y-97087927D01*
X91791793Y-97146446D01*
X91723240Y-97240800D01*
X91637454Y-97409163D01*
X91579059Y-97588881D01*
X91549500Y-97775513D01*
X87081533Y-97775513D01*
X87234022Y-97697815D01*
X87248880Y-97687019D01*
X87271856Y-97670328D01*
X87271856Y-97670327D01*
X87365465Y-97602317D01*
X87412365Y-97568242D01*
X87568242Y-97412365D01*
X87697815Y-97234022D01*
X87797895Y-97037606D01*
X87866015Y-96827951D01*
X87894567Y-96647682D01*
X121950000Y-96647682D01*
X121950000Y-96852317D01*
X121982009Y-97054417D01*
X122045244Y-97249031D01*
X122138141Y-97431350D01*
X122138147Y-97431359D01*
X122170523Y-97475921D01*
X122170524Y-97475922D01*
X122850000Y-96796446D01*
X122850000Y-96802661D01*
X122877259Y-96904394D01*
X122929920Y-96995606D01*
X123004394Y-97070080D01*
X123095606Y-97122741D01*
X123197339Y-97150000D01*
X123203553Y-97150000D01*
X122524076Y-97829474D01*
X122568650Y-97861859D01*
X122750968Y-97954755D01*
X122945582Y-98017990D01*
X123147683Y-98050000D01*
X123352317Y-98050000D01*
X123554417Y-98017990D01*
X123749031Y-97954755D01*
X123931349Y-97861859D01*
X123975921Y-97829474D01*
X123296447Y-97150000D01*
X123302661Y-97150000D01*
X123404394Y-97122741D01*
X123495606Y-97070080D01*
X123570080Y-96995606D01*
X123622741Y-96904394D01*
X123650000Y-96802661D01*
X123650000Y-96796447D01*
X124329474Y-97475921D01*
X124361859Y-97431349D01*
X124454755Y-97249031D01*
X124517990Y-97054417D01*
X124550000Y-96852317D01*
X124550000Y-96647682D01*
X124549995Y-96647648D01*
X126949500Y-96647648D01*
X126949500Y-96852351D01*
X126981522Y-97054534D01*
X127044781Y-97249223D01*
X127108691Y-97374653D01*
X127137585Y-97431359D01*
X127137715Y-97431613D01*
X127258028Y-97597213D01*
X127402786Y-97741971D01*
X127523226Y-97829474D01*
X127568390Y-97862287D01*
X127684607Y-97921503D01*
X127750776Y-97955218D01*
X127750778Y-97955218D01*
X127750781Y-97955220D01*
X127825507Y-97979500D01*
X127945465Y-98018477D01*
X128046557Y-98034488D01*
X128147648Y-98050500D01*
X128147649Y-98050500D01*
X128352351Y-98050500D01*
X128352352Y-98050500D01*
X128554534Y-98018477D01*
X128749219Y-97955220D01*
X128931610Y-97862287D01*
X129076265Y-97757190D01*
X129097213Y-97741971D01*
X129097215Y-97741968D01*
X129097219Y-97741966D01*
X129241966Y-97597219D01*
X129241968Y-97597215D01*
X129241971Y-97597213D01*
X129362284Y-97431614D01*
X129362285Y-97431613D01*
X129362287Y-97431610D01*
X129379574Y-97397682D01*
X142200000Y-97397682D01*
X142200000Y-97602317D01*
X142232009Y-97804417D01*
X142295244Y-97999031D01*
X142388141Y-98181350D01*
X142388147Y-98181359D01*
X142420523Y-98225921D01*
X142420524Y-98225922D01*
X143100000Y-97546446D01*
X143100000Y-97552661D01*
X143127259Y-97654394D01*
X143179920Y-97745606D01*
X143254394Y-97820080D01*
X143345606Y-97872741D01*
X143447339Y-97900000D01*
X143453553Y-97900000D01*
X142774076Y-98579474D01*
X142818650Y-98611859D01*
X143000968Y-98704755D01*
X143195582Y-98767990D01*
X143397683Y-98800000D01*
X143602317Y-98800000D01*
X143804417Y-98767990D01*
X143999031Y-98704755D01*
X144181349Y-98611859D01*
X144225921Y-98579474D01*
X143546447Y-97900000D01*
X143552661Y-97900000D01*
X143654394Y-97872741D01*
X143745606Y-97820080D01*
X143820080Y-97745606D01*
X143872741Y-97654394D01*
X143900000Y-97552661D01*
X143900000Y-97546448D01*
X144579474Y-98225922D01*
X144579474Y-98225921D01*
X144611859Y-98181349D01*
X144704755Y-97999031D01*
X144767990Y-97804417D01*
X144800000Y-97602317D01*
X144800000Y-97397682D01*
X144767990Y-97195582D01*
X144704755Y-97000968D01*
X144611859Y-96818650D01*
X144579474Y-96774077D01*
X144579474Y-96774076D01*
X143900000Y-97453551D01*
X143900000Y-97447339D01*
X143872741Y-97345606D01*
X143820080Y-97254394D01*
X143745606Y-97179920D01*
X143654394Y-97127259D01*
X143552661Y-97100000D01*
X143546446Y-97100000D01*
X144225922Y-96420524D01*
X144225921Y-96420523D01*
X144181359Y-96388147D01*
X144181350Y-96388141D01*
X143999031Y-96295244D01*
X143804417Y-96232009D01*
X143602317Y-96200000D01*
X143397683Y-96200000D01*
X143195582Y-96232009D01*
X143000968Y-96295244D01*
X142818644Y-96388143D01*
X142774077Y-96420523D01*
X142774077Y-96420524D01*
X143453554Y-97100000D01*
X143447339Y-97100000D01*
X143345606Y-97127259D01*
X143254394Y-97179920D01*
X143179920Y-97254394D01*
X143127259Y-97345606D01*
X143100000Y-97447339D01*
X143100000Y-97453553D01*
X142420524Y-96774077D01*
X142420523Y-96774077D01*
X142388143Y-96818644D01*
X142295244Y-97000968D01*
X142232009Y-97195582D01*
X142200000Y-97397682D01*
X129379574Y-97397682D01*
X129455220Y-97249219D01*
X129518477Y-97054534D01*
X129550500Y-96852352D01*
X129550500Y-96647648D01*
X129518477Y-96445466D01*
X129502549Y-96396446D01*
X129487458Y-96350000D01*
X129455220Y-96250781D01*
X129455218Y-96250778D01*
X129455218Y-96250776D01*
X129362419Y-96068650D01*
X129362287Y-96068390D01*
X129330092Y-96024077D01*
X129241971Y-95902786D01*
X129097213Y-95758028D01*
X128931613Y-95637715D01*
X128931612Y-95637714D01*
X128931610Y-95637713D01*
X128874653Y-95608691D01*
X128749223Y-95544781D01*
X128554534Y-95481522D01*
X128379995Y-95453878D01*
X128352352Y-95449500D01*
X128147648Y-95449500D01*
X128123329Y-95453351D01*
X127945465Y-95481522D01*
X127750776Y-95544781D01*
X127568386Y-95637715D01*
X127402786Y-95758028D01*
X127258028Y-95902786D01*
X127137715Y-96068386D01*
X127044781Y-96250776D01*
X126981522Y-96445465D01*
X126949500Y-96647648D01*
X124549995Y-96647648D01*
X124517990Y-96445582D01*
X124454755Y-96250968D01*
X124361859Y-96068650D01*
X124329474Y-96024077D01*
X124329474Y-96024076D01*
X123650000Y-96703551D01*
X123650000Y-96697339D01*
X123622741Y-96595606D01*
X123570080Y-96504394D01*
X123495606Y-96429920D01*
X123404394Y-96377259D01*
X123302661Y-96350000D01*
X123296446Y-96350000D01*
X123975922Y-95670524D01*
X123975921Y-95670523D01*
X123931359Y-95638147D01*
X123931350Y-95638141D01*
X123749031Y-95545244D01*
X123554417Y-95482009D01*
X123352317Y-95450000D01*
X123147683Y-95450000D01*
X122945582Y-95482009D01*
X122750968Y-95545244D01*
X122568644Y-95638143D01*
X122524077Y-95670523D01*
X122524077Y-95670524D01*
X123203554Y-96350000D01*
X123197339Y-96350000D01*
X123095606Y-96377259D01*
X123004394Y-96429920D01*
X122929920Y-96504394D01*
X122877259Y-96595606D01*
X122850000Y-96697339D01*
X122850000Y-96703553D01*
X122170524Y-96024077D01*
X122170523Y-96024077D01*
X122138143Y-96068644D01*
X122045244Y-96250968D01*
X121982009Y-96445582D01*
X121950000Y-96647682D01*
X87894567Y-96647682D01*
X87900500Y-96610222D01*
X87900500Y-96389778D01*
X87866015Y-96172049D01*
X87831955Y-96067221D01*
X87797896Y-95962396D01*
X87797890Y-95962383D01*
X87701944Y-95774080D01*
X87701942Y-95774078D01*
X87697812Y-95765973D01*
X87568247Y-95587641D01*
X87568243Y-95587636D01*
X87412363Y-95431756D01*
X87412358Y-95431752D01*
X87234025Y-95302187D01*
X87234024Y-95302186D01*
X87234022Y-95302185D01*
X87171096Y-95270122D01*
X87037606Y-95202104D01*
X87037603Y-95202103D01*
X86827952Y-95133985D01*
X86719086Y-95116742D01*
X86610222Y-95099500D01*
X86389778Y-95099500D01*
X86317201Y-95110995D01*
X86172047Y-95133985D01*
X85962396Y-95202103D01*
X85962393Y-95202104D01*
X85765974Y-95302187D01*
X85587641Y-95431752D01*
X85587636Y-95431756D01*
X85537075Y-95482317D01*
X85475752Y-95515801D01*
X85406060Y-95510816D01*
X85350127Y-95468945D01*
X85333213Y-95437968D01*
X85303354Y-95357913D01*
X85303350Y-95357906D01*
X85217190Y-95242812D01*
X85217187Y-95242809D01*
X85102093Y-95156649D01*
X85102086Y-95156645D01*
X84967379Y-95106403D01*
X84967372Y-95106401D01*
X84907844Y-95100000D01*
X84210000Y-95100000D01*
X84210000Y-96124722D01*
X84133694Y-96080667D01*
X84019244Y-96050000D01*
X83900756Y-96050000D01*
X83786306Y-96080667D01*
X83710000Y-96124722D01*
X83710000Y-95100000D01*
X83012155Y-95100000D01*
X82952627Y-95106401D01*
X82952620Y-95106403D01*
X82817913Y-95156645D01*
X82817906Y-95156649D01*
X82702812Y-95242809D01*
X82702809Y-95242812D01*
X82616649Y-95357906D01*
X82616645Y-95357913D01*
X82566403Y-95492620D01*
X82566401Y-95492627D01*
X82560000Y-95552155D01*
X76500500Y-95552155D01*
X76500500Y-93534038D01*
X141899500Y-93534038D01*
X141899500Y-93785961D01*
X141938910Y-94034785D01*
X142016760Y-94274383D01*
X142131132Y-94498848D01*
X142279201Y-94702649D01*
X142279205Y-94702654D01*
X142457345Y-94880794D01*
X142457350Y-94880798D01*
X142635117Y-95009952D01*
X142661155Y-95028870D01*
X142799774Y-95099500D01*
X142885616Y-95143239D01*
X142885618Y-95143239D01*
X142885621Y-95143241D01*
X143125215Y-95221090D01*
X143374038Y-95260500D01*
X143374039Y-95260500D01*
X143625961Y-95260500D01*
X143625962Y-95260500D01*
X143874785Y-95221090D01*
X144114379Y-95143241D01*
X144338845Y-95028870D01*
X144542656Y-94880793D01*
X144720793Y-94702656D01*
X144868870Y-94498845D01*
X144983241Y-94274379D01*
X145061090Y-94034785D01*
X145100500Y-93785962D01*
X145100500Y-93534038D01*
X145061090Y-93285215D01*
X144983241Y-93045621D01*
X144983239Y-93045618D01*
X144983239Y-93045616D01*
X144881274Y-92845500D01*
X144868870Y-92821155D01*
X144838833Y-92779812D01*
X144720798Y-92617350D01*
X144720794Y-92617345D01*
X144542654Y-92439205D01*
X144542649Y-92439201D01*
X144338848Y-92291132D01*
X144338847Y-92291131D01*
X144338845Y-92291130D01*
X144253795Y-92247795D01*
X144114383Y-92176760D01*
X143874785Y-92098910D01*
X143625962Y-92059500D01*
X143374038Y-92059500D01*
X143249626Y-92079205D01*
X143125214Y-92098910D01*
X142885616Y-92176760D01*
X142661151Y-92291132D01*
X142457350Y-92439201D01*
X142457345Y-92439205D01*
X142279205Y-92617345D01*
X142279201Y-92617350D01*
X142131132Y-92821151D01*
X142016760Y-93045616D01*
X141938910Y-93285214D01*
X141899500Y-93534038D01*
X76500500Y-93534038D01*
X76500500Y-90155513D01*
X91549500Y-90155513D01*
X91549500Y-90344486D01*
X91579059Y-90531118D01*
X91637454Y-90710836D01*
X91677215Y-90788870D01*
X91723240Y-90879199D01*
X91834310Y-91032073D01*
X91967927Y-91165690D01*
X92120801Y-91276760D01*
X92200347Y-91317290D01*
X92289163Y-91362545D01*
X92289165Y-91362545D01*
X92289168Y-91362547D01*
X92385497Y-91393846D01*
X92468881Y-91420940D01*
X92655514Y-91450500D01*
X92655519Y-91450500D01*
X92844486Y-91450500D01*
X93031118Y-91420940D01*
X93210832Y-91362547D01*
X93379199Y-91276760D01*
X93532073Y-91165690D01*
X93665690Y-91032073D01*
X93776760Y-90879199D01*
X93862547Y-90710832D01*
X93920940Y-90531118D01*
X93931783Y-90462656D01*
X93950500Y-90344486D01*
X93950500Y-90155513D01*
X96799500Y-90155513D01*
X96799500Y-90344486D01*
X96829059Y-90531118D01*
X96887454Y-90710836D01*
X96927215Y-90788870D01*
X96973240Y-90879199D01*
X97084310Y-91032073D01*
X97217927Y-91165690D01*
X97370801Y-91276760D01*
X97450347Y-91317290D01*
X97539163Y-91362545D01*
X97539165Y-91362545D01*
X97539168Y-91362547D01*
X97635497Y-91393846D01*
X97718881Y-91420940D01*
X97905514Y-91450500D01*
X97905519Y-91450500D01*
X98094486Y-91450500D01*
X98281118Y-91420940D01*
X98460832Y-91362547D01*
X98629199Y-91276760D01*
X98782073Y-91165690D01*
X98915690Y-91032073D01*
X99026760Y-90879199D01*
X99112547Y-90710832D01*
X99170940Y-90531118D01*
X99181783Y-90462656D01*
X99200500Y-90344486D01*
X99200500Y-90155513D01*
X99170940Y-89968881D01*
X99143846Y-89885497D01*
X99112547Y-89789168D01*
X99112545Y-89789165D01*
X99112545Y-89789163D01*
X99043057Y-89652786D01*
X99026760Y-89620801D01*
X98915690Y-89467927D01*
X98782073Y-89334310D01*
X98629199Y-89223240D01*
X98460836Y-89137454D01*
X98281118Y-89079059D01*
X98094486Y-89049500D01*
X98094481Y-89049500D01*
X97905519Y-89049500D01*
X97905514Y-89049500D01*
X97718881Y-89079059D01*
X97539163Y-89137454D01*
X97370800Y-89223240D01*
X97283579Y-89286610D01*
X97217927Y-89334310D01*
X97217925Y-89334312D01*
X97217924Y-89334312D01*
X97084312Y-89467924D01*
X97084312Y-89467925D01*
X97084310Y-89467927D01*
X97041869Y-89526342D01*
X96973240Y-89620800D01*
X96887454Y-89789163D01*
X96829059Y-89968881D01*
X96799500Y-90155513D01*
X93950500Y-90155513D01*
X93920940Y-89968881D01*
X93893846Y-89885497D01*
X93862547Y-89789168D01*
X93862545Y-89789165D01*
X93862545Y-89789163D01*
X93793057Y-89652786D01*
X93776760Y-89620801D01*
X93665690Y-89467927D01*
X93532073Y-89334310D01*
X93379199Y-89223240D01*
X93210836Y-89137454D01*
X93031118Y-89079059D01*
X92844486Y-89049500D01*
X92844481Y-89049500D01*
X92655519Y-89049500D01*
X92655514Y-89049500D01*
X92468881Y-89079059D01*
X92289163Y-89137454D01*
X92120800Y-89223240D01*
X92033579Y-89286610D01*
X91967927Y-89334310D01*
X91967925Y-89334312D01*
X91967924Y-89334312D01*
X91834312Y-89467924D01*
X91834312Y-89467925D01*
X91834310Y-89467927D01*
X91791869Y-89526342D01*
X91723240Y-89620800D01*
X91637454Y-89789163D01*
X91579059Y-89968881D01*
X91549500Y-90155513D01*
X76500500Y-90155513D01*
X76500500Y-87416995D01*
X82527000Y-87416995D01*
X82527000Y-87653004D01*
X82527001Y-87653020D01*
X82553940Y-87857648D01*
X82557807Y-87887014D01*
X82577502Y-87960517D01*
X82618894Y-88114993D01*
X82709214Y-88333045D01*
X82709219Y-88333056D01*
X82757802Y-88417203D01*
X82827227Y-88537450D01*
X82827229Y-88537453D01*
X82827230Y-88537454D01*
X82970906Y-88724697D01*
X82970912Y-88724704D01*
X83137795Y-88891587D01*
X83137802Y-88891593D01*
X83247806Y-88976001D01*
X83325050Y-89035273D01*
X83456418Y-89111118D01*
X83529443Y-89153280D01*
X83529448Y-89153282D01*
X83529451Y-89153284D01*
X83747507Y-89243606D01*
X83975486Y-89304693D01*
X84209489Y-89335500D01*
X84209496Y-89335500D01*
X84445504Y-89335500D01*
X84445511Y-89335500D01*
X84679514Y-89304693D01*
X84907493Y-89243606D01*
X85125549Y-89153284D01*
X85329950Y-89035273D01*
X85517199Y-88891592D01*
X85684092Y-88724699D01*
X85827773Y-88537450D01*
X85837858Y-88519982D01*
X103149500Y-88519982D01*
X103149500Y-90320017D01*
X103160000Y-90422796D01*
X103195153Y-90528881D01*
X103215186Y-90589335D01*
X103307288Y-90738656D01*
X103431344Y-90862712D01*
X103580665Y-90954814D01*
X103747202Y-91009999D01*
X103849990Y-91020500D01*
X103849995Y-91020500D01*
X105650005Y-91020500D01*
X105650010Y-91020500D01*
X105752798Y-91009999D01*
X105919335Y-90954814D01*
X106068656Y-90862712D01*
X106192712Y-90738656D01*
X106284814Y-90589335D01*
X106339999Y-90422798D01*
X106350500Y-90320010D01*
X106350500Y-89294038D01*
X109649500Y-89294038D01*
X109649500Y-89545962D01*
X109664245Y-89639059D01*
X109688910Y-89794785D01*
X109766760Y-90034383D01*
X109881132Y-90258848D01*
X110029201Y-90462649D01*
X110029205Y-90462654D01*
X110207345Y-90640794D01*
X110207350Y-90640798D01*
X110385117Y-90769952D01*
X110411155Y-90788870D01*
X110554184Y-90861747D01*
X110635616Y-90903239D01*
X110635618Y-90903239D01*
X110635621Y-90903241D01*
X110875215Y-90981090D01*
X111124038Y-91020500D01*
X111124039Y-91020500D01*
X111375961Y-91020500D01*
X111375962Y-91020500D01*
X111624785Y-90981090D01*
X111864379Y-90903241D01*
X112088845Y-90788870D01*
X112189812Y-90715513D01*
X115799500Y-90715513D01*
X115799500Y-90904486D01*
X115829059Y-91091118D01*
X115887454Y-91270836D01*
X115973240Y-91439199D01*
X116084310Y-91592073D01*
X116217927Y-91725690D01*
X116370801Y-91836760D01*
X116450347Y-91877290D01*
X116539163Y-91922545D01*
X116539165Y-91922545D01*
X116539168Y-91922547D01*
X116635497Y-91953846D01*
X116718881Y-91980940D01*
X116905514Y-92010500D01*
X116905519Y-92010500D01*
X117094486Y-92010500D01*
X117281118Y-91980940D01*
X117460832Y-91922547D01*
X117629199Y-91836760D01*
X117782073Y-91725690D01*
X117915690Y-91592073D01*
X118026760Y-91439199D01*
X118112547Y-91270832D01*
X118170940Y-91091118D01*
X118200500Y-90904486D01*
X118200500Y-90715513D01*
X118170940Y-90528881D01*
X118112545Y-90349163D01*
X118034232Y-90195466D01*
X118026760Y-90180801D01*
X117915690Y-90027927D01*
X117782073Y-89894310D01*
X117629199Y-89783240D01*
X117460836Y-89697454D01*
X117281118Y-89639059D01*
X117094486Y-89609500D01*
X117094481Y-89609500D01*
X116905519Y-89609500D01*
X116905514Y-89609500D01*
X116718881Y-89639059D01*
X116539163Y-89697454D01*
X116370800Y-89783240D01*
X116322421Y-89818390D01*
X116217927Y-89894310D01*
X116217925Y-89894312D01*
X116217924Y-89894312D01*
X116084312Y-90027924D01*
X116084312Y-90027925D01*
X116084310Y-90027927D01*
X116036610Y-90093579D01*
X115973240Y-90180800D01*
X115887454Y-90349163D01*
X115829059Y-90528881D01*
X115799500Y-90715513D01*
X112189812Y-90715513D01*
X112292656Y-90640793D01*
X112470793Y-90462656D01*
X112618870Y-90258845D01*
X112733241Y-90034379D01*
X112811090Y-89794785D01*
X112850500Y-89545962D01*
X112850500Y-89294038D01*
X112811090Y-89045215D01*
X112733241Y-88805621D01*
X112733239Y-88805618D01*
X112733239Y-88805616D01*
X112670079Y-88681659D01*
X112618870Y-88581155D01*
X112587122Y-88537457D01*
X112470798Y-88377350D01*
X112470794Y-88377345D01*
X112292654Y-88199205D01*
X112292649Y-88199201D01*
X112088848Y-88051132D01*
X112088847Y-88051131D01*
X112088845Y-88051130D01*
X111983490Y-87997449D01*
X111864383Y-87936760D01*
X111624785Y-87858910D01*
X111616817Y-87857648D01*
X111375962Y-87819500D01*
X111124038Y-87819500D01*
X111057738Y-87830001D01*
X110875214Y-87858910D01*
X110635616Y-87936760D01*
X110411151Y-88051132D01*
X110207350Y-88199201D01*
X110207345Y-88199205D01*
X110029205Y-88377345D01*
X110029201Y-88377350D01*
X109881132Y-88581151D01*
X109766760Y-88805616D01*
X109688910Y-89045214D01*
X109657488Y-89243605D01*
X109649500Y-89294038D01*
X106350500Y-89294038D01*
X106350500Y-88519990D01*
X106339999Y-88417202D01*
X106284814Y-88250665D01*
X106192712Y-88101344D01*
X106068656Y-87977288D01*
X105922299Y-87887014D01*
X105919337Y-87885187D01*
X105919332Y-87885185D01*
X105917863Y-87884698D01*
X105752798Y-87830001D01*
X105752796Y-87830000D01*
X105650017Y-87819500D01*
X105650010Y-87819500D01*
X103849990Y-87819500D01*
X103849982Y-87819500D01*
X103747203Y-87830000D01*
X103747202Y-87830001D01*
X103664669Y-87857349D01*
X103580667Y-87885185D01*
X103580662Y-87885187D01*
X103431342Y-87977289D01*
X103307289Y-88101342D01*
X103215187Y-88250662D01*
X103215185Y-88250667D01*
X103210590Y-88264534D01*
X103160001Y-88417202D01*
X103160001Y-88417203D01*
X103160000Y-88417203D01*
X103149500Y-88519982D01*
X85837858Y-88519982D01*
X85945784Y-88333049D01*
X86036106Y-88114993D01*
X86097193Y-87887014D01*
X86128000Y-87653011D01*
X86128000Y-87416989D01*
X86097193Y-87182986D01*
X86036106Y-86955007D01*
X85945784Y-86736951D01*
X85945782Y-86736948D01*
X85945780Y-86736943D01*
X85903618Y-86663918D01*
X85827773Y-86532550D01*
X85684092Y-86345301D01*
X85684087Y-86345295D01*
X85517204Y-86178412D01*
X85517197Y-86178406D01*
X85329954Y-86034730D01*
X85329953Y-86034729D01*
X85329950Y-86034727D01*
X85248457Y-85987677D01*
X85125556Y-85916719D01*
X85125545Y-85916714D01*
X84907493Y-85826394D01*
X84679510Y-85765306D01*
X84445520Y-85734501D01*
X84445517Y-85734500D01*
X84445511Y-85734500D01*
X84209489Y-85734500D01*
X84209483Y-85734500D01*
X84209479Y-85734501D01*
X83975489Y-85765306D01*
X83747506Y-85826394D01*
X83529454Y-85916714D01*
X83529443Y-85916719D01*
X83325045Y-86034730D01*
X83137802Y-86178406D01*
X83137795Y-86178412D01*
X82970912Y-86345295D01*
X82970906Y-86345302D01*
X82827230Y-86532545D01*
X82709219Y-86736943D01*
X82709214Y-86736954D01*
X82618894Y-86955006D01*
X82557806Y-87182989D01*
X82527001Y-87416979D01*
X82527000Y-87416995D01*
X76500500Y-87416995D01*
X76500500Y-85317648D01*
X120889500Y-85317648D01*
X120889500Y-85522351D01*
X120921522Y-85724534D01*
X120984781Y-85919223D01*
X121043634Y-86034727D01*
X121068236Y-86083011D01*
X121077715Y-86101613D01*
X121198028Y-86267213D01*
X121342786Y-86411971D01*
X121497749Y-86524556D01*
X121508390Y-86532287D01*
X121599840Y-86578883D01*
X121601080Y-86579515D01*
X121651876Y-86627490D01*
X121668671Y-86695311D01*
X121646134Y-86761446D01*
X121601080Y-86800485D01*
X121508386Y-86847715D01*
X121342786Y-86968028D01*
X121198028Y-87112786D01*
X121077715Y-87278386D01*
X120984781Y-87460776D01*
X120921522Y-87655465D01*
X120889500Y-87857648D01*
X120889500Y-88062351D01*
X120921522Y-88264534D01*
X120984781Y-88459223D01*
X121077715Y-88641613D01*
X121198028Y-88807213D01*
X121342786Y-88951971D01*
X121457444Y-89035273D01*
X121508390Y-89072287D01*
X121599840Y-89118883D01*
X121601080Y-89119515D01*
X121651876Y-89167490D01*
X121668671Y-89235311D01*
X121646134Y-89301446D01*
X121601080Y-89340485D01*
X121508386Y-89387715D01*
X121342786Y-89508028D01*
X121198028Y-89652786D01*
X121077715Y-89818386D01*
X120984781Y-90000776D01*
X120921522Y-90195465D01*
X120889500Y-90397648D01*
X120889500Y-90602351D01*
X120921522Y-90804534D01*
X120984781Y-90999223D01*
X121031605Y-91091118D01*
X121069601Y-91165690D01*
X121077715Y-91181613D01*
X121198028Y-91347213D01*
X121342786Y-91491971D01*
X121480569Y-91592074D01*
X121508390Y-91612287D01*
X121624607Y-91671503D01*
X121690776Y-91705218D01*
X121690778Y-91705218D01*
X121690781Y-91705220D01*
X121795137Y-91739127D01*
X121885465Y-91768477D01*
X121986557Y-91784488D01*
X122087648Y-91800500D01*
X122087649Y-91800500D01*
X122292351Y-91800500D01*
X122292352Y-91800500D01*
X122494534Y-91768477D01*
X122689219Y-91705220D01*
X122871610Y-91612287D01*
X122964590Y-91544732D01*
X123037213Y-91491971D01*
X123037215Y-91491968D01*
X123037219Y-91491966D01*
X123181966Y-91347219D01*
X123181968Y-91347215D01*
X123181971Y-91347213D01*
X123237464Y-91270832D01*
X123302287Y-91181610D01*
X123395220Y-90999219D01*
X123458477Y-90804534D01*
X123490500Y-90602352D01*
X123490500Y-90397648D01*
X123468516Y-90258848D01*
X123458477Y-90195465D01*
X123406138Y-90034383D01*
X123395220Y-90000781D01*
X123395218Y-90000778D01*
X123395218Y-90000776D01*
X123340970Y-89894310D01*
X123302287Y-89818390D01*
X123276749Y-89783240D01*
X123181971Y-89652786D01*
X123037213Y-89508028D01*
X122871614Y-89387715D01*
X122865006Y-89384348D01*
X122778917Y-89340483D01*
X122728123Y-89292511D01*
X122711328Y-89224690D01*
X122733865Y-89158555D01*
X122778917Y-89119516D01*
X122871610Y-89072287D01*
X122922556Y-89035273D01*
X123037213Y-88951971D01*
X123037215Y-88951968D01*
X123037219Y-88951966D01*
X123181966Y-88807219D01*
X123181968Y-88807215D01*
X123181971Y-88807213D01*
X123252236Y-88710500D01*
X123302287Y-88641610D01*
X123395220Y-88459219D01*
X123458477Y-88264534D01*
X123490500Y-88062352D01*
X123490500Y-88062345D01*
X123490779Y-88060584D01*
X123520708Y-87997449D01*
X123580019Y-87960517D01*
X123649882Y-87961515D01*
X123700933Y-87992300D01*
X124147048Y-88438415D01*
X124147049Y-88438416D01*
X124228615Y-88519982D01*
X124251585Y-88542952D01*
X124374498Y-88625080D01*
X124374511Y-88625087D01*
X124511082Y-88681656D01*
X124511087Y-88681658D01*
X124511091Y-88681658D01*
X124511092Y-88681659D01*
X124656079Y-88710500D01*
X124656082Y-88710500D01*
X128684582Y-88710500D01*
X128751621Y-88730185D01*
X128784900Y-88761615D01*
X128818028Y-88807212D01*
X128818032Y-88807217D01*
X128962786Y-88951971D01*
X129077444Y-89035273D01*
X129128390Y-89072287D01*
X129219840Y-89118883D01*
X129221080Y-89119515D01*
X129271876Y-89167490D01*
X129288671Y-89235311D01*
X129266134Y-89301446D01*
X129221080Y-89340485D01*
X129128386Y-89387715D01*
X128962786Y-89508028D01*
X128818028Y-89652786D01*
X128697715Y-89818386D01*
X128604781Y-90000776D01*
X128541522Y-90195465D01*
X128509500Y-90397648D01*
X128509500Y-90602351D01*
X128541522Y-90804534D01*
X128604781Y-90999223D01*
X128651605Y-91091118D01*
X128689601Y-91165690D01*
X128697715Y-91181613D01*
X128818028Y-91347213D01*
X128962786Y-91491971D01*
X129100569Y-91592074D01*
X129128390Y-91612287D01*
X129244607Y-91671503D01*
X129310776Y-91705218D01*
X129310778Y-91705218D01*
X129310781Y-91705220D01*
X129415137Y-91739127D01*
X129505465Y-91768477D01*
X129606557Y-91784488D01*
X129707648Y-91800500D01*
X129707649Y-91800500D01*
X129912351Y-91800500D01*
X129912352Y-91800500D01*
X130114534Y-91768477D01*
X130309219Y-91705220D01*
X130491610Y-91612287D01*
X130584590Y-91544732D01*
X130657213Y-91491971D01*
X130657215Y-91491968D01*
X130657219Y-91491966D01*
X130801966Y-91347219D01*
X130801968Y-91347215D01*
X130801971Y-91347213D01*
X130857464Y-91270832D01*
X130922287Y-91181610D01*
X131015220Y-90999219D01*
X131078477Y-90804534D01*
X131110500Y-90602352D01*
X131110500Y-90397648D01*
X131088516Y-90258848D01*
X131078477Y-90195465D01*
X131065495Y-90155513D01*
X131015220Y-90000781D01*
X130986789Y-89944983D01*
X152122000Y-89944983D01*
X152122000Y-92145001D01*
X152122001Y-92145018D01*
X152132500Y-92247796D01*
X152132501Y-92247799D01*
X152187685Y-92414331D01*
X152187686Y-92414334D01*
X152279788Y-92563656D01*
X152403844Y-92687712D01*
X152553166Y-92779814D01*
X152719703Y-92834999D01*
X152822491Y-92845500D01*
X155022508Y-92845499D01*
X155125297Y-92834999D01*
X155291834Y-92779814D01*
X155441156Y-92687712D01*
X155565212Y-92563656D01*
X155657314Y-92414334D01*
X155712499Y-92247797D01*
X155723000Y-92145009D01*
X155722999Y-89944992D01*
X155712499Y-89842203D01*
X155657314Y-89675666D01*
X155565212Y-89526344D01*
X155441156Y-89402288D01*
X155330949Y-89334312D01*
X155291836Y-89310187D01*
X155291831Y-89310185D01*
X155265458Y-89301446D01*
X155125297Y-89255001D01*
X155125295Y-89255000D01*
X155022510Y-89244500D01*
X152822498Y-89244500D01*
X152822481Y-89244501D01*
X152719703Y-89255000D01*
X152719700Y-89255001D01*
X152553168Y-89310185D01*
X152553163Y-89310187D01*
X152403842Y-89402289D01*
X152279789Y-89526342D01*
X152187687Y-89675663D01*
X152187686Y-89675666D01*
X152132501Y-89842203D01*
X152132501Y-89842204D01*
X152132500Y-89842204D01*
X152122000Y-89944983D01*
X130986789Y-89944983D01*
X130922287Y-89818390D01*
X130896749Y-89783240D01*
X130801971Y-89652786D01*
X130657213Y-89508028D01*
X130491614Y-89387715D01*
X130485006Y-89384348D01*
X130398917Y-89340483D01*
X130348123Y-89292511D01*
X130331328Y-89224690D01*
X130353865Y-89158555D01*
X130398917Y-89119516D01*
X130491610Y-89072287D01*
X130542556Y-89035273D01*
X130657213Y-88951971D01*
X130657215Y-88951968D01*
X130657219Y-88951966D01*
X130801966Y-88807219D01*
X130801968Y-88807215D01*
X130801971Y-88807213D01*
X130872236Y-88710500D01*
X130922287Y-88641610D01*
X131015220Y-88459219D01*
X131078477Y-88264534D01*
X131110500Y-88062352D01*
X131110500Y-87857648D01*
X131078477Y-87655466D01*
X131077682Y-87653020D01*
X131049127Y-87565137D01*
X131015220Y-87460781D01*
X131015218Y-87460778D01*
X131015218Y-87460776D01*
X130981503Y-87394607D01*
X130922287Y-87278390D01*
X130872236Y-87209500D01*
X130801971Y-87112786D01*
X130657213Y-86968028D01*
X130491614Y-86847715D01*
X130485006Y-86844348D01*
X130398917Y-86800483D01*
X130348123Y-86752511D01*
X130331328Y-86684690D01*
X130353865Y-86618555D01*
X130398917Y-86579516D01*
X130491610Y-86532287D01*
X130512770Y-86516913D01*
X130657213Y-86411971D01*
X130657215Y-86411968D01*
X130657219Y-86411966D01*
X130801966Y-86267219D01*
X130801968Y-86267215D01*
X130801971Y-86267213D01*
X130854732Y-86194590D01*
X130922287Y-86101610D01*
X131015220Y-85919219D01*
X131038687Y-85846995D01*
X152122000Y-85846995D01*
X152122000Y-86083004D01*
X152122001Y-86083020D01*
X152152806Y-86317010D01*
X152213894Y-86544993D01*
X152304214Y-86763045D01*
X152304219Y-86763056D01*
X152353098Y-86847715D01*
X152422227Y-86967450D01*
X152422229Y-86967453D01*
X152422230Y-86967454D01*
X152565906Y-87154697D01*
X152565912Y-87154704D01*
X152732795Y-87321587D01*
X152732801Y-87321592D01*
X152920050Y-87465273D01*
X153051418Y-87541118D01*
X153124443Y-87583280D01*
X153124448Y-87583282D01*
X153124451Y-87583284D01*
X153342507Y-87673606D01*
X153570486Y-87734693D01*
X153804489Y-87765500D01*
X153804496Y-87765500D01*
X154040504Y-87765500D01*
X154040511Y-87765500D01*
X154274514Y-87734693D01*
X154502493Y-87673606D01*
X154720549Y-87583284D01*
X154924950Y-87465273D01*
X155112199Y-87321592D01*
X155279092Y-87154699D01*
X155422773Y-86967450D01*
X155540784Y-86763049D01*
X155631106Y-86544993D01*
X155692193Y-86317014D01*
X155723000Y-86083011D01*
X155723000Y-85846989D01*
X155692193Y-85612986D01*
X155631106Y-85385007D01*
X155540784Y-85166951D01*
X155540782Y-85166948D01*
X155540780Y-85166943D01*
X155496355Y-85089998D01*
X155422773Y-84962550D01*
X155312360Y-84818657D01*
X155279093Y-84775302D01*
X155279087Y-84775295D01*
X155112204Y-84608412D01*
X155112197Y-84608406D01*
X154924954Y-84464730D01*
X154924953Y-84464729D01*
X154924950Y-84464727D01*
X154812847Y-84400004D01*
X154720556Y-84346719D01*
X154720545Y-84346714D01*
X154502493Y-84256394D01*
X154463254Y-84245880D01*
X154274514Y-84195307D01*
X154274513Y-84195306D01*
X154274510Y-84195306D01*
X154040520Y-84164501D01*
X154040517Y-84164500D01*
X154040511Y-84164500D01*
X153804489Y-84164500D01*
X153804483Y-84164500D01*
X153804479Y-84164501D01*
X153570489Y-84195306D01*
X153342506Y-84256394D01*
X153124454Y-84346714D01*
X153124443Y-84346719D01*
X152920045Y-84464730D01*
X152732802Y-84608406D01*
X152732795Y-84608412D01*
X152565912Y-84775295D01*
X152565906Y-84775302D01*
X152422230Y-84962545D01*
X152304219Y-85166943D01*
X152304214Y-85166954D01*
X152213894Y-85385006D01*
X152152806Y-85612989D01*
X152122001Y-85846979D01*
X152122000Y-85846995D01*
X131038687Y-85846995D01*
X131078477Y-85724534D01*
X131110500Y-85522352D01*
X131110500Y-85317648D01*
X131078477Y-85115466D01*
X131073614Y-85100500D01*
X131049127Y-85025137D01*
X131015220Y-84920781D01*
X131015218Y-84920778D01*
X131015218Y-84920776D01*
X130963185Y-84818657D01*
X130922287Y-84738390D01*
X130914556Y-84727749D01*
X130801971Y-84572786D01*
X130657213Y-84428028D01*
X130491614Y-84307715D01*
X130481467Y-84302545D01*
X130398917Y-84260483D01*
X130348123Y-84212511D01*
X130331328Y-84144690D01*
X130353865Y-84078555D01*
X130398917Y-84039516D01*
X130491610Y-83992287D01*
X130519432Y-83972073D01*
X130657213Y-83871971D01*
X130657215Y-83871968D01*
X130657219Y-83871966D01*
X130801966Y-83727219D01*
X130801968Y-83727215D01*
X130801971Y-83727213D01*
X130857464Y-83650832D01*
X130922287Y-83561610D01*
X131015220Y-83379219D01*
X131078477Y-83184534D01*
X131110500Y-82982352D01*
X131110500Y-82777648D01*
X131108163Y-82762890D01*
X131084934Y-82616231D01*
X131082360Y-82599982D01*
X141899500Y-82599982D01*
X141899500Y-84400017D01*
X141910000Y-84502796D01*
X141910001Y-84502798D01*
X141965186Y-84669335D01*
X142057288Y-84818656D01*
X142181344Y-84942712D01*
X142330665Y-85034814D01*
X142497202Y-85089999D01*
X142599990Y-85100500D01*
X142599995Y-85100500D01*
X144400005Y-85100500D01*
X144400010Y-85100500D01*
X144502798Y-85089999D01*
X144669335Y-85034814D01*
X144818656Y-84942712D01*
X144942712Y-84818656D01*
X145034814Y-84669335D01*
X145089999Y-84502798D01*
X145100500Y-84400010D01*
X145100500Y-82599990D01*
X145089999Y-82497202D01*
X145034814Y-82330665D01*
X144942712Y-82181344D01*
X144818656Y-82057288D01*
X144669335Y-81965186D01*
X144502798Y-81910001D01*
X144502796Y-81910000D01*
X144400017Y-81899500D01*
X144400010Y-81899500D01*
X142599990Y-81899500D01*
X142599982Y-81899500D01*
X142497203Y-81910000D01*
X142497202Y-81910001D01*
X142414669Y-81937349D01*
X142330667Y-81965185D01*
X142330662Y-81965187D01*
X142181342Y-82057289D01*
X142057289Y-82181342D01*
X141965187Y-82330662D01*
X141965185Y-82330667D01*
X141939584Y-82407927D01*
X141910001Y-82497202D01*
X141910001Y-82497203D01*
X141910000Y-82497203D01*
X141899500Y-82599982D01*
X131082360Y-82599982D01*
X131078477Y-82575466D01*
X131015220Y-82380781D01*
X131015218Y-82380778D01*
X131015218Y-82380776D01*
X130981503Y-82314607D01*
X130922287Y-82198390D01*
X130914556Y-82187749D01*
X130801971Y-82032786D01*
X130657213Y-81888028D01*
X130491613Y-81767715D01*
X130491612Y-81767714D01*
X130491610Y-81767713D01*
X130432675Y-81737684D01*
X130309223Y-81674781D01*
X130114534Y-81611522D01*
X129939995Y-81583878D01*
X129912352Y-81579500D01*
X129707648Y-81579500D01*
X129683329Y-81583351D01*
X129505465Y-81611522D01*
X129310776Y-81674781D01*
X129128386Y-81767715D01*
X128962786Y-81888028D01*
X128818028Y-82032786D01*
X128697715Y-82198386D01*
X128604781Y-82380776D01*
X128541522Y-82575465D01*
X128509500Y-82777648D01*
X128509500Y-82982351D01*
X128541522Y-83184534D01*
X128604781Y-83379223D01*
X128651605Y-83471118D01*
X128694331Y-83554973D01*
X128697715Y-83561613D01*
X128818028Y-83727213D01*
X128962786Y-83871971D01*
X129100569Y-83972074D01*
X129128390Y-83992287D01*
X129219840Y-84038883D01*
X129221080Y-84039515D01*
X129271876Y-84087490D01*
X129288671Y-84155311D01*
X129266134Y-84221446D01*
X129221080Y-84260485D01*
X129128386Y-84307715D01*
X128962786Y-84428028D01*
X128818028Y-84572786D01*
X128697715Y-84738386D01*
X128604781Y-84920776D01*
X128541522Y-85115465D01*
X128509500Y-85317648D01*
X128509500Y-85522351D01*
X128541522Y-85724534D01*
X128604781Y-85919223D01*
X128663634Y-86034727D01*
X128688236Y-86083011D01*
X128697715Y-86101613D01*
X128818028Y-86267213D01*
X128962786Y-86411971D01*
X129117749Y-86524556D01*
X129128390Y-86532287D01*
X129219840Y-86578883D01*
X129221080Y-86579515D01*
X129271876Y-86627490D01*
X129288671Y-86695311D01*
X129266134Y-86761446D01*
X129221080Y-86800485D01*
X129128386Y-86847715D01*
X128962786Y-86968028D01*
X128818032Y-87112782D01*
X128818028Y-87112787D01*
X128784900Y-87158385D01*
X128729571Y-87201051D01*
X128684582Y-87209500D01*
X125092229Y-87209500D01*
X125025190Y-87189815D01*
X125004548Y-87173181D01*
X123516473Y-85685106D01*
X123482988Y-85623783D01*
X123481681Y-85578028D01*
X123490500Y-85522352D01*
X123490500Y-85317648D01*
X123458477Y-85115466D01*
X123453614Y-85100500D01*
X123429127Y-85025137D01*
X123395220Y-84920781D01*
X123395218Y-84920778D01*
X123395218Y-84920776D01*
X123343185Y-84818657D01*
X123302287Y-84738390D01*
X123294556Y-84727749D01*
X123181971Y-84572786D01*
X123037217Y-84428032D01*
X123037212Y-84428028D01*
X122943051Y-84359616D01*
X122900385Y-84304286D01*
X122894406Y-84234673D01*
X122927012Y-84172878D01*
X122976933Y-84141592D01*
X123059117Y-84114359D01*
X123059124Y-84114356D01*
X123208345Y-84022315D01*
X123332315Y-83898345D01*
X123424356Y-83749124D01*
X123424358Y-83749119D01*
X123479505Y-83582697D01*
X123479506Y-83582690D01*
X123489999Y-83479986D01*
X123490000Y-83479973D01*
X123490000Y-83130000D01*
X122505686Y-83130000D01*
X122510080Y-83125606D01*
X122562741Y-83034394D01*
X122590000Y-82932661D01*
X122590000Y-82827339D01*
X122562741Y-82725606D01*
X122510080Y-82634394D01*
X122505686Y-82630000D01*
X123489999Y-82630000D01*
X123489999Y-82280028D01*
X123489998Y-82280013D01*
X123479505Y-82177302D01*
X123424358Y-82010880D01*
X123424356Y-82010875D01*
X123332315Y-81861654D01*
X123208345Y-81737684D01*
X123059124Y-81645643D01*
X123059119Y-81645641D01*
X122892697Y-81590494D01*
X122892690Y-81590493D01*
X122789986Y-81580000D01*
X122440000Y-81580000D01*
X122440000Y-82564314D01*
X122435606Y-82559920D01*
X122344394Y-82507259D01*
X122242661Y-82480000D01*
X122137339Y-82480000D01*
X122035606Y-82507259D01*
X121944394Y-82559920D01*
X121940000Y-82564314D01*
X121940000Y-81580000D01*
X121590028Y-81580000D01*
X121590012Y-81580001D01*
X121487302Y-81590494D01*
X121320880Y-81645641D01*
X121320875Y-81645643D01*
X121171654Y-81737684D01*
X121047684Y-81861654D01*
X120955643Y-82010875D01*
X120955641Y-82010880D01*
X120900494Y-82177302D01*
X120900493Y-82177309D01*
X120890000Y-82280013D01*
X120890000Y-82630000D01*
X121874314Y-82630000D01*
X121869920Y-82634394D01*
X121817259Y-82725606D01*
X121790000Y-82827339D01*
X121790000Y-82932661D01*
X121817259Y-83034394D01*
X121869920Y-83125606D01*
X121874314Y-83130000D01*
X120890001Y-83130000D01*
X120890001Y-83479986D01*
X120900494Y-83582697D01*
X120955641Y-83749119D01*
X120955643Y-83749124D01*
X121047684Y-83898345D01*
X121171654Y-84022315D01*
X121320875Y-84114356D01*
X121320882Y-84114359D01*
X121403067Y-84141592D01*
X121460512Y-84181364D01*
X121487336Y-84245880D01*
X121475021Y-84314656D01*
X121436949Y-84359616D01*
X121342787Y-84428028D01*
X121342782Y-84428032D01*
X121198028Y-84572786D01*
X121077715Y-84738386D01*
X120984781Y-84920776D01*
X120921522Y-85115465D01*
X120889500Y-85317648D01*
X76500500Y-85317648D01*
X76500500Y-81355013D01*
X82527500Y-81355013D01*
X82527500Y-82205000D01*
X83727499Y-82205000D01*
X83702479Y-82265402D01*
X83677500Y-82390981D01*
X83677500Y-82519019D01*
X83702479Y-82644598D01*
X83727499Y-82705000D01*
X82527501Y-82705000D01*
X82527501Y-83554986D01*
X82537994Y-83657697D01*
X82593141Y-83824119D01*
X82593143Y-83824124D01*
X82685184Y-83973345D01*
X82809154Y-84097315D01*
X82958375Y-84189356D01*
X82958380Y-84189358D01*
X83124802Y-84244505D01*
X83124809Y-84244506D01*
X83227519Y-84254999D01*
X84077499Y-84254999D01*
X84077500Y-84254998D01*
X84077500Y-83055001D01*
X84137902Y-83080021D01*
X84263481Y-83105000D01*
X84391519Y-83105000D01*
X84517098Y-83080021D01*
X84577500Y-83055001D01*
X84577500Y-84254999D01*
X85427472Y-84254999D01*
X85427486Y-84254998D01*
X85530197Y-84244505D01*
X85696619Y-84189358D01*
X85696624Y-84189356D01*
X85845845Y-84097315D01*
X85969815Y-83973345D01*
X86061856Y-83824124D01*
X86061858Y-83824119D01*
X86117005Y-83657697D01*
X86117006Y-83657690D01*
X86127499Y-83554986D01*
X86127500Y-83554973D01*
X86127500Y-83095513D01*
X115799500Y-83095513D01*
X115799500Y-83284486D01*
X115829059Y-83471118D01*
X115887454Y-83650836D01*
X115937535Y-83749124D01*
X115973240Y-83819199D01*
X116084310Y-83972073D01*
X116217927Y-84105690D01*
X116370801Y-84216760D01*
X116445848Y-84254998D01*
X116539163Y-84302545D01*
X116539165Y-84302545D01*
X116539168Y-84302547D01*
X116635497Y-84333846D01*
X116718881Y-84360940D01*
X116905514Y-84390500D01*
X116905519Y-84390500D01*
X117094486Y-84390500D01*
X117281118Y-84360940D01*
X117324885Y-84346719D01*
X117460832Y-84302547D01*
X117629199Y-84216760D01*
X117782073Y-84105690D01*
X117915690Y-83972073D01*
X118026760Y-83819199D01*
X118112547Y-83650832D01*
X118170940Y-83471118D01*
X118185495Y-83379223D01*
X118200500Y-83284486D01*
X118200500Y-83095513D01*
X118170940Y-82908881D01*
X118112545Y-82729163D01*
X118064257Y-82634394D01*
X118026760Y-82560801D01*
X117915690Y-82407927D01*
X117782073Y-82274310D01*
X117629199Y-82163240D01*
X117597542Y-82147110D01*
X117460836Y-82077454D01*
X117281118Y-82019059D01*
X117094486Y-81989500D01*
X117094481Y-81989500D01*
X116905519Y-81989500D01*
X116905514Y-81989500D01*
X116718881Y-82019059D01*
X116539163Y-82077454D01*
X116370800Y-82163240D01*
X116283579Y-82226610D01*
X116217927Y-82274310D01*
X116217925Y-82274312D01*
X116217924Y-82274312D01*
X116084312Y-82407924D01*
X116084312Y-82407925D01*
X116084310Y-82407927D01*
X116036610Y-82473579D01*
X115973240Y-82560800D01*
X115887454Y-82729163D01*
X115829059Y-82908881D01*
X115799500Y-83095513D01*
X86127500Y-83095513D01*
X86127500Y-82705000D01*
X84927501Y-82705000D01*
X84952521Y-82644598D01*
X84977500Y-82519019D01*
X84977500Y-82390981D01*
X84952521Y-82265402D01*
X84927501Y-82205000D01*
X86127499Y-82205000D01*
X86127499Y-81355028D01*
X86127498Y-81355013D01*
X86117005Y-81252302D01*
X86065452Y-81096726D01*
X86065451Y-81096724D01*
X86061859Y-81085882D01*
X86061856Y-81085875D01*
X85969815Y-80936654D01*
X85845845Y-80812684D01*
X85696624Y-80720643D01*
X85696619Y-80720641D01*
X85530197Y-80665494D01*
X85530190Y-80665493D01*
X85427486Y-80655000D01*
X84577500Y-80655000D01*
X84577500Y-81854998D01*
X84517098Y-81829979D01*
X84391519Y-81805000D01*
X84263481Y-81805000D01*
X84137902Y-81829979D01*
X84077500Y-81854998D01*
X84077500Y-80655000D01*
X83227528Y-80655000D01*
X83227512Y-80655001D01*
X83124802Y-80665494D01*
X82958380Y-80720641D01*
X82958375Y-80720643D01*
X82809154Y-80812684D01*
X82685184Y-80936654D01*
X82593143Y-81085875D01*
X82593141Y-81085880D01*
X82537994Y-81252302D01*
X82537993Y-81252309D01*
X82527500Y-81355013D01*
X76500500Y-81355013D01*
X76500500Y-79764270D01*
X95750000Y-79764270D01*
X95750000Y-80000375D01*
X95786934Y-80233570D01*
X95859897Y-80458125D01*
X95967087Y-80668497D01*
X96027338Y-80751427D01*
X96027340Y-80751428D01*
X96767037Y-80011731D01*
X96784075Y-80075316D01*
X96849901Y-80189330D01*
X96942993Y-80282422D01*
X97057007Y-80348248D01*
X97120590Y-80365285D01*
X96380893Y-81104981D01*
X96463828Y-81165237D01*
X96674197Y-81272425D01*
X96898752Y-81345388D01*
X96898751Y-81345388D01*
X97131948Y-81382323D01*
X97368052Y-81382323D01*
X97601247Y-81345388D01*
X97825802Y-81272425D01*
X98036163Y-81165241D01*
X98036169Y-81165237D01*
X98119104Y-81104981D01*
X98119105Y-81104981D01*
X97379408Y-80365285D01*
X97442993Y-80348248D01*
X97557007Y-80282422D01*
X97650099Y-80189330D01*
X97715925Y-80075316D01*
X97732962Y-80011731D01*
X98472658Y-80751428D01*
X98472658Y-80751427D01*
X98532914Y-80668492D01*
X98532918Y-80668486D01*
X98640102Y-80458125D01*
X98713065Y-80233570D01*
X98750000Y-80000375D01*
X98750000Y-79764270D01*
X98713065Y-79531075D01*
X98640102Y-79306520D01*
X98532914Y-79096151D01*
X98472658Y-79013217D01*
X98472658Y-79013216D01*
X97732962Y-79752913D01*
X97715925Y-79689330D01*
X97650099Y-79575316D01*
X97557007Y-79482224D01*
X97442993Y-79416398D01*
X97379409Y-79399360D01*
X98119105Y-78659663D01*
X98119104Y-78659661D01*
X98036174Y-78599410D01*
X97825802Y-78492220D01*
X97601247Y-78419257D01*
X97601248Y-78419257D01*
X97368052Y-78382323D01*
X97131948Y-78382323D01*
X96898752Y-78419257D01*
X96674197Y-78492220D01*
X96463830Y-78599407D01*
X96380894Y-78659663D01*
X97120591Y-79399360D01*
X97057007Y-79416398D01*
X96942993Y-79482224D01*
X96849901Y-79575316D01*
X96784075Y-79689330D01*
X96767037Y-79752914D01*
X96027340Y-79013217D01*
X95967084Y-79096153D01*
X95859897Y-79306520D01*
X95786934Y-79531075D01*
X95750000Y-79764270D01*
X76500500Y-79764270D01*
X76500500Y-76452135D01*
X136294500Y-76452135D01*
X136294500Y-78547870D01*
X136294501Y-78547876D01*
X136300908Y-78607483D01*
X136351202Y-78742328D01*
X136351206Y-78742335D01*
X136437452Y-78857544D01*
X136437455Y-78857547D01*
X136552664Y-78943793D01*
X136552671Y-78943797D01*
X136687517Y-78994091D01*
X136687516Y-78994091D01*
X136694444Y-78994835D01*
X136747127Y-79000500D01*
X138747872Y-79000499D01*
X138807483Y-78994091D01*
X138942331Y-78943796D01*
X139057546Y-78857546D01*
X139143796Y-78742331D01*
X139154190Y-78714460D01*
X139196060Y-78658527D01*
X139261523Y-78634108D01*
X139329797Y-78648958D01*
X139343246Y-78657465D01*
X139525962Y-78790217D01*
X139658099Y-78857544D01*
X139729744Y-78894049D01*
X139947251Y-78964721D01*
X139947252Y-78964721D01*
X139947255Y-78964722D01*
X140173146Y-79000500D01*
X140173147Y-79000500D01*
X140401853Y-79000500D01*
X140401854Y-79000500D01*
X140627745Y-78964722D01*
X140627748Y-78964721D01*
X140627749Y-78964721D01*
X140845255Y-78894049D01*
X140845255Y-78894048D01*
X140845258Y-78894048D01*
X141049038Y-78790217D01*
X141234066Y-78655786D01*
X141395786Y-78494066D01*
X141457492Y-78409134D01*
X141512819Y-78366470D01*
X141582432Y-78360491D01*
X141644227Y-78393096D01*
X141658126Y-78409135D01*
X141719597Y-78493741D01*
X141719597Y-78493742D01*
X141881257Y-78655402D01*
X142066223Y-78789788D01*
X142269929Y-78893582D01*
X142487371Y-78964234D01*
X142577500Y-78978509D01*
X142577500Y-77990747D01*
X142615208Y-78012518D01*
X142755091Y-78050000D01*
X142899909Y-78050000D01*
X143039792Y-78012518D01*
X143077500Y-77990747D01*
X143077500Y-78978508D01*
X143167628Y-78964234D01*
X143385070Y-78893582D01*
X143588776Y-78789788D01*
X143773742Y-78655402D01*
X143935402Y-78493742D01*
X144069788Y-78308776D01*
X144173582Y-78105070D01*
X144244234Y-77887628D01*
X144266032Y-77750000D01*
X143318248Y-77750000D01*
X143340018Y-77712292D01*
X143377500Y-77572409D01*
X143377500Y-77427591D01*
X143340018Y-77287708D01*
X143318248Y-77250000D01*
X144266032Y-77250000D01*
X144244234Y-77112371D01*
X144173582Y-76894929D01*
X144069788Y-76691223D01*
X143935402Y-76506257D01*
X143773742Y-76344597D01*
X143588776Y-76210211D01*
X143385068Y-76106417D01*
X143167624Y-76035765D01*
X143077500Y-76021490D01*
X143077500Y-77009252D01*
X143039792Y-76987482D01*
X142899909Y-76950000D01*
X142755091Y-76950000D01*
X142615208Y-76987482D01*
X142577500Y-77009252D01*
X142577500Y-76021490D01*
X142577499Y-76021490D01*
X142487375Y-76035765D01*
X142269931Y-76106417D01*
X142066223Y-76210211D01*
X141881257Y-76344597D01*
X141719597Y-76506257D01*
X141658127Y-76590864D01*
X141602797Y-76633529D01*
X141533184Y-76639508D01*
X141471389Y-76606902D01*
X141457491Y-76590864D01*
X141395786Y-76505934D01*
X141234066Y-76344214D01*
X141049038Y-76209783D01*
X140845255Y-76105950D01*
X140627748Y-76035278D01*
X140442312Y-76005908D01*
X140401854Y-75999500D01*
X140173146Y-75999500D01*
X140132688Y-76005908D01*
X139947253Y-76035278D01*
X139947250Y-76035278D01*
X139729744Y-76105950D01*
X139525961Y-76209783D01*
X139343259Y-76342525D01*
X139277452Y-76366005D01*
X139209398Y-76350180D01*
X139160703Y-76300074D01*
X139154190Y-76285538D01*
X139143796Y-76257669D01*
X139143793Y-76257664D01*
X139057547Y-76142455D01*
X139057544Y-76142452D01*
X138942335Y-76056206D01*
X138942328Y-76056202D01*
X138807482Y-76005908D01*
X138807483Y-76005908D01*
X138747883Y-75999501D01*
X138747881Y-75999500D01*
X138747873Y-75999500D01*
X138747864Y-75999500D01*
X136747129Y-75999500D01*
X136747123Y-75999501D01*
X136687516Y-76005908D01*
X136552671Y-76056202D01*
X136552664Y-76056206D01*
X136437455Y-76142452D01*
X136437452Y-76142455D01*
X136351206Y-76257664D01*
X136351202Y-76257671D01*
X136300908Y-76392517D01*
X136294501Y-76452116D01*
X136294500Y-76452135D01*
X76500500Y-76452135D01*
X76500500Y-74082306D01*
X95749500Y-74082306D01*
X95749500Y-75682324D01*
X95749501Y-75682341D01*
X95760000Y-75785119D01*
X95760001Y-75785122D01*
X95815185Y-75951654D01*
X95815186Y-75951657D01*
X95907288Y-76100979D01*
X96031344Y-76225035D01*
X96180666Y-76317137D01*
X96347203Y-76372322D01*
X96449991Y-76382823D01*
X98050008Y-76382822D01*
X98152797Y-76372322D01*
X98319334Y-76317137D01*
X98468656Y-76225035D01*
X98592712Y-76100979D01*
X98684814Y-75951657D01*
X98739999Y-75785120D01*
X98750500Y-75682332D01*
X98750499Y-74082315D01*
X98739999Y-73979526D01*
X98684814Y-73812989D01*
X98592712Y-73663667D01*
X98468656Y-73539611D01*
X98319334Y-73447509D01*
X98152797Y-73392324D01*
X98152795Y-73392323D01*
X98050010Y-73381823D01*
X96449998Y-73381823D01*
X96449981Y-73381824D01*
X96347203Y-73392323D01*
X96347200Y-73392324D01*
X96180668Y-73447508D01*
X96180663Y-73447510D01*
X96031342Y-73539612D01*
X95907289Y-73663665D01*
X95815187Y-73812986D01*
X95815186Y-73812989D01*
X95760001Y-73979526D01*
X95760001Y-73979527D01*
X95760000Y-73979527D01*
X95749500Y-74082306D01*
X76500500Y-74082306D01*
X76500500Y-70854745D01*
X76520185Y-70787706D01*
X76572989Y-70741951D01*
X76642147Y-70732007D01*
X76705703Y-70761032D01*
X76741539Y-70813786D01*
X76778733Y-70920079D01*
X76778737Y-70920087D01*
X76778738Y-70920090D01*
X76895714Y-71162994D01*
X76895716Y-71162997D01*
X77039162Y-71391289D01*
X77207266Y-71602085D01*
X77397915Y-71792734D01*
X77608711Y-71960838D01*
X77837003Y-72104284D01*
X78079921Y-72221267D01*
X78271049Y-72288145D01*
X78334397Y-72310312D01*
X78334405Y-72310315D01*
X78334408Y-72310315D01*
X78334409Y-72310316D01*
X78597268Y-72370312D01*
X78865187Y-72400499D01*
X78865188Y-72400500D01*
X78865191Y-72400500D01*
X79134812Y-72400500D01*
X79134812Y-72400499D01*
X79402732Y-72370312D01*
X79665591Y-72310316D01*
X79920079Y-72221267D01*
X80162997Y-72104284D01*
X80391289Y-71960838D01*
X80602085Y-71792734D01*
X80792734Y-71602085D01*
X80960838Y-71391289D01*
X80974924Y-71368872D01*
X112999500Y-71368872D01*
X112999500Y-71631127D01*
X113020777Y-71792734D01*
X113033730Y-71891116D01*
X113052412Y-71960838D01*
X113101602Y-72144418D01*
X113101605Y-72144428D01*
X113201953Y-72386690D01*
X113201958Y-72386700D01*
X113333075Y-72613803D01*
X113492718Y-72821851D01*
X113492726Y-72821860D01*
X113678140Y-73007274D01*
X113678148Y-73007281D01*
X113886196Y-73166924D01*
X114113299Y-73298041D01*
X114113309Y-73298046D01*
X114340917Y-73392324D01*
X114355581Y-73398398D01*
X114608884Y-73466270D01*
X114857188Y-73498960D01*
X114868864Y-73500498D01*
X114868880Y-73500500D01*
X114868887Y-73500500D01*
X115131113Y-73500500D01*
X115131120Y-73500500D01*
X115391116Y-73466270D01*
X115644419Y-73398398D01*
X115886697Y-73298043D01*
X116113803Y-73166924D01*
X116321851Y-73007282D01*
X116321855Y-73007277D01*
X116321860Y-73007274D01*
X116507274Y-72821860D01*
X116507277Y-72821855D01*
X116507282Y-72821851D01*
X116666924Y-72613803D01*
X116798043Y-72386697D01*
X116804830Y-72370313D01*
X116829681Y-72310316D01*
X116898398Y-72144419D01*
X116966270Y-71891116D01*
X117000500Y-71631120D01*
X117000500Y-71368880D01*
X117000499Y-71368872D01*
X117999500Y-71368872D01*
X117999500Y-71631127D01*
X118020777Y-71792734D01*
X118033730Y-71891116D01*
X118052412Y-71960838D01*
X118101602Y-72144418D01*
X118101605Y-72144428D01*
X118201953Y-72386690D01*
X118201958Y-72386700D01*
X118333075Y-72613803D01*
X118492718Y-72821851D01*
X118492726Y-72821860D01*
X118678140Y-73007274D01*
X118678148Y-73007281D01*
X118886196Y-73166924D01*
X119113299Y-73298041D01*
X119113309Y-73298046D01*
X119340917Y-73392324D01*
X119355581Y-73398398D01*
X119608884Y-73466270D01*
X119857188Y-73498960D01*
X119868864Y-73500498D01*
X119868880Y-73500500D01*
X119868887Y-73500500D01*
X120131113Y-73500500D01*
X120131120Y-73500500D01*
X120391116Y-73466270D01*
X120644419Y-73398398D01*
X120886697Y-73298043D01*
X121113803Y-73166924D01*
X121321851Y-73007282D01*
X121321855Y-73007277D01*
X121321860Y-73007274D01*
X121507274Y-72821860D01*
X121507277Y-72821855D01*
X121507282Y-72821851D01*
X121666924Y-72613803D01*
X121798043Y-72386697D01*
X121804830Y-72370313D01*
X121829681Y-72310316D01*
X121898398Y-72144419D01*
X121966270Y-71891116D01*
X122000500Y-71631120D01*
X122000500Y-71368880D01*
X121966270Y-71108884D01*
X121898398Y-70855581D01*
X121870283Y-70787706D01*
X121798046Y-70613309D01*
X121798041Y-70613299D01*
X121666924Y-70386196D01*
X121507281Y-70178148D01*
X121507274Y-70178140D01*
X121321860Y-69992726D01*
X121321851Y-69992718D01*
X121268963Y-69952135D01*
X122999500Y-69952135D01*
X122999500Y-73047870D01*
X122999501Y-73047876D01*
X123005908Y-73107483D01*
X123056202Y-73242328D01*
X123056206Y-73242335D01*
X123142452Y-73357544D01*
X123142455Y-73357547D01*
X123257664Y-73443793D01*
X123257671Y-73443797D01*
X123392517Y-73494091D01*
X123392516Y-73494091D01*
X123399444Y-73494835D01*
X123452127Y-73500500D01*
X126547872Y-73500499D01*
X126607483Y-73494091D01*
X126742331Y-73443796D01*
X126857546Y-73357546D01*
X126943796Y-73242331D01*
X126994091Y-73107483D01*
X127000500Y-73047873D01*
X127000499Y-69952128D01*
X126994091Y-69892517D01*
X126983897Y-69865186D01*
X126943797Y-69757671D01*
X126943793Y-69757664D01*
X126857547Y-69642455D01*
X126857544Y-69642452D01*
X126742335Y-69556206D01*
X126742328Y-69556202D01*
X126607482Y-69505908D01*
X126607483Y-69505908D01*
X126547883Y-69499501D01*
X126547881Y-69499500D01*
X126547873Y-69499500D01*
X126547864Y-69499500D01*
X123452129Y-69499500D01*
X123452123Y-69499501D01*
X123392516Y-69505908D01*
X123257671Y-69556202D01*
X123257664Y-69556206D01*
X123142455Y-69642452D01*
X123142452Y-69642455D01*
X123056206Y-69757664D01*
X123056202Y-69757671D01*
X123005908Y-69892517D01*
X123001437Y-69934108D01*
X122999501Y-69952123D01*
X122999500Y-69952135D01*
X121268963Y-69952135D01*
X121113803Y-69833075D01*
X120886700Y-69701958D01*
X120886690Y-69701953D01*
X120644428Y-69601605D01*
X120644421Y-69601603D01*
X120644419Y-69601602D01*
X120391116Y-69533730D01*
X120333339Y-69526123D01*
X120131127Y-69499500D01*
X120131120Y-69499500D01*
X119868880Y-69499500D01*
X119868872Y-69499500D01*
X119637772Y-69529926D01*
X119608884Y-69533730D01*
X119371756Y-69597268D01*
X119355581Y-69601602D01*
X119355571Y-69601605D01*
X119113309Y-69701953D01*
X119113299Y-69701958D01*
X118886196Y-69833075D01*
X118678148Y-69992718D01*
X118492718Y-70178148D01*
X118333075Y-70386196D01*
X118201958Y-70613299D01*
X118201953Y-70613309D01*
X118101605Y-70855571D01*
X118101602Y-70855581D01*
X118033730Y-71108885D01*
X117999500Y-71368872D01*
X117000499Y-71368872D01*
X116966270Y-71108884D01*
X116898398Y-70855581D01*
X116870283Y-70787706D01*
X116798046Y-70613309D01*
X116798041Y-70613299D01*
X116666924Y-70386196D01*
X116507281Y-70178148D01*
X116507274Y-70178140D01*
X116321860Y-69992726D01*
X116321851Y-69992718D01*
X116113803Y-69833075D01*
X115886700Y-69701958D01*
X115886690Y-69701953D01*
X115644428Y-69601605D01*
X115644421Y-69601603D01*
X115644419Y-69601602D01*
X115391116Y-69533730D01*
X115333339Y-69526123D01*
X115131127Y-69499500D01*
X115131120Y-69499500D01*
X114868880Y-69499500D01*
X114868872Y-69499500D01*
X114637772Y-69529926D01*
X114608884Y-69533730D01*
X114371756Y-69597268D01*
X114355581Y-69601602D01*
X114355571Y-69601605D01*
X114113309Y-69701953D01*
X114113299Y-69701958D01*
X113886196Y-69833075D01*
X113678148Y-69992718D01*
X113492718Y-70178148D01*
X113333075Y-70386196D01*
X113201958Y-70613299D01*
X113201953Y-70613309D01*
X113101605Y-70855571D01*
X113101602Y-70855581D01*
X113033730Y-71108885D01*
X112999500Y-71368872D01*
X80974924Y-71368872D01*
X81104284Y-71162997D01*
X81221267Y-70920079D01*
X81310316Y-70665591D01*
X81370312Y-70402732D01*
X81400500Y-70134809D01*
X81400500Y-69865191D01*
X81370312Y-69597268D01*
X81310316Y-69334409D01*
X81221267Y-69079921D01*
X81104284Y-68837003D01*
X80960838Y-68608711D01*
X80792734Y-68397915D01*
X80602085Y-68207266D01*
X80391289Y-68039162D01*
X80162997Y-67895716D01*
X80162994Y-67895714D01*
X79920082Y-67778734D01*
X79813791Y-67741541D01*
X79757015Y-67700820D01*
X79731268Y-67635867D01*
X79744724Y-67567305D01*
X79793112Y-67516902D01*
X79854746Y-67500500D01*
X157145254Y-67500500D01*
X157212293Y-67520185D01*
G37*
%TD.AperFunction*%
%TD*%
M02*
