%TF.GenerationSoftware,KiCad,Pcbnew,10.0.3*%
%TF.CreationDate,2026-10-02T15:13:25-04:00*%
%TF.ProjectId,Motor_Speed_Controller,4d6f746f-725f-4537-9065-65645f436f6e,rev?*%
%TF.SameCoordinates,Original*%
%TF.FileFunction,Legend,Top*%
%TF.FilePolarity,Positive*%
%FSLAX46Y46*%
G04 Gerber Fmt 4.6, Leading zero omitted, Abs format (unit mm)*
G04 Created by KiCad (PCBNEW 10.0.3) date 2026-10-02 15:13:25*
%MOMM*%
%LPD*%
G01*
G04 APERTURE LIST*
%ADD10C,0.186500*%
%ADD11C,0.187500*%
%ADD12C,0.300000*%
%ADD13C,0.150000*%
%ADD14C,0.120000*%
G04 APERTURE END LIST*
D10*
X160013031Y-90479839D02*
X160013031Y-91622697D01*
X159632078Y-91051268D02*
X160393983Y-91051268D01*
X159613698Y-84979839D02*
X159613698Y-86122697D01*
D11*
X151016212Y-78806678D02*
X151301926Y-78806678D01*
X151301926Y-78806678D02*
X151444783Y-78878107D01*
X151444783Y-78878107D02*
X151587640Y-79020964D01*
X151587640Y-79020964D02*
X151659069Y-79306678D01*
X151659069Y-79306678D02*
X151659069Y-79806678D01*
X151659069Y-79806678D02*
X151587640Y-80092392D01*
X151587640Y-80092392D02*
X151444783Y-80235250D01*
X151444783Y-80235250D02*
X151301926Y-80306678D01*
X151301926Y-80306678D02*
X151016212Y-80306678D01*
X151016212Y-80306678D02*
X150873355Y-80235250D01*
X150873355Y-80235250D02*
X150730497Y-80092392D01*
X150730497Y-80092392D02*
X150659069Y-79806678D01*
X150659069Y-79806678D02*
X150659069Y-79306678D01*
X150659069Y-79306678D02*
X150730497Y-79020964D01*
X150730497Y-79020964D02*
X150873355Y-78878107D01*
X150873355Y-78878107D02*
X151016212Y-78806678D01*
X152944784Y-79306678D02*
X152944784Y-80306678D01*
X152301926Y-79306678D02*
X152301926Y-80092392D01*
X152301926Y-80092392D02*
X152373355Y-80235250D01*
X152373355Y-80235250D02*
X152516212Y-80306678D01*
X152516212Y-80306678D02*
X152730498Y-80306678D01*
X152730498Y-80306678D02*
X152873355Y-80235250D01*
X152873355Y-80235250D02*
X152944784Y-80163821D01*
X153444784Y-79306678D02*
X154016212Y-79306678D01*
X153659069Y-78806678D02*
X153659069Y-80092392D01*
X153659069Y-80092392D02*
X153730498Y-80235250D01*
X153730498Y-80235250D02*
X153873355Y-80306678D01*
X153873355Y-80306678D02*
X154016212Y-80306678D01*
X154516212Y-79306678D02*
X154516212Y-80806678D01*
X154516212Y-79378107D02*
X154659070Y-79306678D01*
X154659070Y-79306678D02*
X154944784Y-79306678D01*
X154944784Y-79306678D02*
X155087641Y-79378107D01*
X155087641Y-79378107D02*
X155159070Y-79449535D01*
X155159070Y-79449535D02*
X155230498Y-79592392D01*
X155230498Y-79592392D02*
X155230498Y-80020964D01*
X155230498Y-80020964D02*
X155159070Y-80163821D01*
X155159070Y-80163821D02*
X155087641Y-80235250D01*
X155087641Y-80235250D02*
X154944784Y-80306678D01*
X154944784Y-80306678D02*
X154659070Y-80306678D01*
X154659070Y-80306678D02*
X154516212Y-80235250D01*
X156516213Y-79306678D02*
X156516213Y-80306678D01*
X155873355Y-79306678D02*
X155873355Y-80092392D01*
X155873355Y-80092392D02*
X155944784Y-80235250D01*
X155944784Y-80235250D02*
X156087641Y-80306678D01*
X156087641Y-80306678D02*
X156301927Y-80306678D01*
X156301927Y-80306678D02*
X156444784Y-80235250D01*
X156444784Y-80235250D02*
X156516213Y-80163821D01*
X157016213Y-79306678D02*
X157587641Y-79306678D01*
X157230498Y-78806678D02*
X157230498Y-80092392D01*
X157230498Y-80092392D02*
X157301927Y-80235250D01*
X157301927Y-80235250D02*
X157444784Y-80306678D01*
X157444784Y-80306678D02*
X157587641Y-80306678D01*
X77514750Y-82230497D02*
X77514750Y-83373355D01*
X77514750Y-87730497D02*
X77514750Y-88873355D01*
X76943321Y-88301926D02*
X78086178Y-88301926D01*
X90443321Y-82480497D02*
X91943321Y-82480497D01*
X91943321Y-82480497D02*
X91943321Y-82837640D01*
X91943321Y-82837640D02*
X91871892Y-83051926D01*
X91871892Y-83051926D02*
X91729035Y-83194783D01*
X91729035Y-83194783D02*
X91586178Y-83266212D01*
X91586178Y-83266212D02*
X91300464Y-83337640D01*
X91300464Y-83337640D02*
X91086178Y-83337640D01*
X91086178Y-83337640D02*
X90800464Y-83266212D01*
X90800464Y-83266212D02*
X90657607Y-83194783D01*
X90657607Y-83194783D02*
X90514750Y-83051926D01*
X90514750Y-83051926D02*
X90443321Y-82837640D01*
X90443321Y-82837640D02*
X90443321Y-82480497D01*
X90586178Y-84837640D02*
X90514750Y-84766212D01*
X90514750Y-84766212D02*
X90443321Y-84551926D01*
X90443321Y-84551926D02*
X90443321Y-84409069D01*
X90443321Y-84409069D02*
X90514750Y-84194783D01*
X90514750Y-84194783D02*
X90657607Y-84051926D01*
X90657607Y-84051926D02*
X90800464Y-83980497D01*
X90800464Y-83980497D02*
X91086178Y-83909069D01*
X91086178Y-83909069D02*
X91300464Y-83909069D01*
X91300464Y-83909069D02*
X91586178Y-83980497D01*
X91586178Y-83980497D02*
X91729035Y-84051926D01*
X91729035Y-84051926D02*
X91871892Y-84194783D01*
X91871892Y-84194783D02*
X91943321Y-84409069D01*
X91943321Y-84409069D02*
X91943321Y-84551926D01*
X91943321Y-84551926D02*
X91871892Y-84766212D01*
X91871892Y-84766212D02*
X91800464Y-84837640D01*
X90443321Y-86623354D02*
X91943321Y-86623354D01*
X90443321Y-87337640D02*
X91943321Y-87337640D01*
X91943321Y-87337640D02*
X90443321Y-88194783D01*
X90443321Y-88194783D02*
X91943321Y-88194783D01*
D12*
X84804510Y-103300828D02*
X84804510Y-101800828D01*
X84804510Y-101800828D02*
X85161653Y-101800828D01*
X85161653Y-101800828D02*
X85375939Y-101872257D01*
X85375939Y-101872257D02*
X85518796Y-102015114D01*
X85518796Y-102015114D02*
X85590225Y-102157971D01*
X85590225Y-102157971D02*
X85661653Y-102443685D01*
X85661653Y-102443685D02*
X85661653Y-102657971D01*
X85661653Y-102657971D02*
X85590225Y-102943685D01*
X85590225Y-102943685D02*
X85518796Y-103086542D01*
X85518796Y-103086542D02*
X85375939Y-103229400D01*
X85375939Y-103229400D02*
X85161653Y-103300828D01*
X85161653Y-103300828D02*
X84804510Y-103300828D01*
X87161653Y-103157971D02*
X87090225Y-103229400D01*
X87090225Y-103229400D02*
X86875939Y-103300828D01*
X86875939Y-103300828D02*
X86733082Y-103300828D01*
X86733082Y-103300828D02*
X86518796Y-103229400D01*
X86518796Y-103229400D02*
X86375939Y-103086542D01*
X86375939Y-103086542D02*
X86304510Y-102943685D01*
X86304510Y-102943685D02*
X86233082Y-102657971D01*
X86233082Y-102657971D02*
X86233082Y-102443685D01*
X86233082Y-102443685D02*
X86304510Y-102157971D01*
X86304510Y-102157971D02*
X86375939Y-102015114D01*
X86375939Y-102015114D02*
X86518796Y-101872257D01*
X86518796Y-101872257D02*
X86733082Y-101800828D01*
X86733082Y-101800828D02*
X86875939Y-101800828D01*
X86875939Y-101800828D02*
X87090225Y-101872257D01*
X87090225Y-101872257D02*
X87161653Y-101943685D01*
X88947367Y-103300828D02*
X88947367Y-101800828D01*
X88947367Y-101800828D02*
X89447367Y-102872257D01*
X89447367Y-102872257D02*
X89947367Y-101800828D01*
X89947367Y-101800828D02*
X89947367Y-103300828D01*
X90875939Y-103300828D02*
X90733082Y-103229400D01*
X90733082Y-103229400D02*
X90661653Y-103157971D01*
X90661653Y-103157971D02*
X90590225Y-103015114D01*
X90590225Y-103015114D02*
X90590225Y-102586542D01*
X90590225Y-102586542D02*
X90661653Y-102443685D01*
X90661653Y-102443685D02*
X90733082Y-102372257D01*
X90733082Y-102372257D02*
X90875939Y-102300828D01*
X90875939Y-102300828D02*
X91090225Y-102300828D01*
X91090225Y-102300828D02*
X91233082Y-102372257D01*
X91233082Y-102372257D02*
X91304511Y-102443685D01*
X91304511Y-102443685D02*
X91375939Y-102586542D01*
X91375939Y-102586542D02*
X91375939Y-103015114D01*
X91375939Y-103015114D02*
X91304511Y-103157971D01*
X91304511Y-103157971D02*
X91233082Y-103229400D01*
X91233082Y-103229400D02*
X91090225Y-103300828D01*
X91090225Y-103300828D02*
X90875939Y-103300828D01*
X91804511Y-102300828D02*
X92375939Y-102300828D01*
X92018796Y-101800828D02*
X92018796Y-103086542D01*
X92018796Y-103086542D02*
X92090225Y-103229400D01*
X92090225Y-103229400D02*
X92233082Y-103300828D01*
X92233082Y-103300828D02*
X92375939Y-103300828D01*
X93090225Y-103300828D02*
X92947368Y-103229400D01*
X92947368Y-103229400D02*
X92875939Y-103157971D01*
X92875939Y-103157971D02*
X92804511Y-103015114D01*
X92804511Y-103015114D02*
X92804511Y-102586542D01*
X92804511Y-102586542D02*
X92875939Y-102443685D01*
X92875939Y-102443685D02*
X92947368Y-102372257D01*
X92947368Y-102372257D02*
X93090225Y-102300828D01*
X93090225Y-102300828D02*
X93304511Y-102300828D01*
X93304511Y-102300828D02*
X93447368Y-102372257D01*
X93447368Y-102372257D02*
X93518797Y-102443685D01*
X93518797Y-102443685D02*
X93590225Y-102586542D01*
X93590225Y-102586542D02*
X93590225Y-103015114D01*
X93590225Y-103015114D02*
X93518797Y-103157971D01*
X93518797Y-103157971D02*
X93447368Y-103229400D01*
X93447368Y-103229400D02*
X93304511Y-103300828D01*
X93304511Y-103300828D02*
X93090225Y-103300828D01*
X94233082Y-103300828D02*
X94233082Y-102300828D01*
X94233082Y-102586542D02*
X94304511Y-102443685D01*
X94304511Y-102443685D02*
X94375940Y-102372257D01*
X94375940Y-102372257D02*
X94518797Y-102300828D01*
X94518797Y-102300828D02*
X94661654Y-102300828D01*
X96233082Y-103229400D02*
X96447368Y-103300828D01*
X96447368Y-103300828D02*
X96804510Y-103300828D01*
X96804510Y-103300828D02*
X96947368Y-103229400D01*
X96947368Y-103229400D02*
X97018796Y-103157971D01*
X97018796Y-103157971D02*
X97090225Y-103015114D01*
X97090225Y-103015114D02*
X97090225Y-102872257D01*
X97090225Y-102872257D02*
X97018796Y-102729400D01*
X97018796Y-102729400D02*
X96947368Y-102657971D01*
X96947368Y-102657971D02*
X96804510Y-102586542D01*
X96804510Y-102586542D02*
X96518796Y-102515114D01*
X96518796Y-102515114D02*
X96375939Y-102443685D01*
X96375939Y-102443685D02*
X96304510Y-102372257D01*
X96304510Y-102372257D02*
X96233082Y-102229400D01*
X96233082Y-102229400D02*
X96233082Y-102086542D01*
X96233082Y-102086542D02*
X96304510Y-101943685D01*
X96304510Y-101943685D02*
X96375939Y-101872257D01*
X96375939Y-101872257D02*
X96518796Y-101800828D01*
X96518796Y-101800828D02*
X96875939Y-101800828D01*
X96875939Y-101800828D02*
X97090225Y-101872257D01*
X97733081Y-102300828D02*
X97733081Y-103800828D01*
X97733081Y-102372257D02*
X97875939Y-102300828D01*
X97875939Y-102300828D02*
X98161653Y-102300828D01*
X98161653Y-102300828D02*
X98304510Y-102372257D01*
X98304510Y-102372257D02*
X98375939Y-102443685D01*
X98375939Y-102443685D02*
X98447367Y-102586542D01*
X98447367Y-102586542D02*
X98447367Y-103015114D01*
X98447367Y-103015114D02*
X98375939Y-103157971D01*
X98375939Y-103157971D02*
X98304510Y-103229400D01*
X98304510Y-103229400D02*
X98161653Y-103300828D01*
X98161653Y-103300828D02*
X97875939Y-103300828D01*
X97875939Y-103300828D02*
X97733081Y-103229400D01*
X99661653Y-103229400D02*
X99518796Y-103300828D01*
X99518796Y-103300828D02*
X99233082Y-103300828D01*
X99233082Y-103300828D02*
X99090224Y-103229400D01*
X99090224Y-103229400D02*
X99018796Y-103086542D01*
X99018796Y-103086542D02*
X99018796Y-102515114D01*
X99018796Y-102515114D02*
X99090224Y-102372257D01*
X99090224Y-102372257D02*
X99233082Y-102300828D01*
X99233082Y-102300828D02*
X99518796Y-102300828D01*
X99518796Y-102300828D02*
X99661653Y-102372257D01*
X99661653Y-102372257D02*
X99733082Y-102515114D01*
X99733082Y-102515114D02*
X99733082Y-102657971D01*
X99733082Y-102657971D02*
X99018796Y-102800828D01*
X100947367Y-103229400D02*
X100804510Y-103300828D01*
X100804510Y-103300828D02*
X100518796Y-103300828D01*
X100518796Y-103300828D02*
X100375938Y-103229400D01*
X100375938Y-103229400D02*
X100304510Y-103086542D01*
X100304510Y-103086542D02*
X100304510Y-102515114D01*
X100304510Y-102515114D02*
X100375938Y-102372257D01*
X100375938Y-102372257D02*
X100518796Y-102300828D01*
X100518796Y-102300828D02*
X100804510Y-102300828D01*
X100804510Y-102300828D02*
X100947367Y-102372257D01*
X100947367Y-102372257D02*
X101018796Y-102515114D01*
X101018796Y-102515114D02*
X101018796Y-102657971D01*
X101018796Y-102657971D02*
X100304510Y-102800828D01*
X102304510Y-103300828D02*
X102304510Y-101800828D01*
X102304510Y-103229400D02*
X102161652Y-103300828D01*
X102161652Y-103300828D02*
X101875938Y-103300828D01*
X101875938Y-103300828D02*
X101733081Y-103229400D01*
X101733081Y-103229400D02*
X101661652Y-103157971D01*
X101661652Y-103157971D02*
X101590224Y-103015114D01*
X101590224Y-103015114D02*
X101590224Y-102586542D01*
X101590224Y-102586542D02*
X101661652Y-102443685D01*
X101661652Y-102443685D02*
X101733081Y-102372257D01*
X101733081Y-102372257D02*
X101875938Y-102300828D01*
X101875938Y-102300828D02*
X102161652Y-102300828D01*
X102161652Y-102300828D02*
X102304510Y-102372257D01*
X105018795Y-103157971D02*
X104947367Y-103229400D01*
X104947367Y-103229400D02*
X104733081Y-103300828D01*
X104733081Y-103300828D02*
X104590224Y-103300828D01*
X104590224Y-103300828D02*
X104375938Y-103229400D01*
X104375938Y-103229400D02*
X104233081Y-103086542D01*
X104233081Y-103086542D02*
X104161652Y-102943685D01*
X104161652Y-102943685D02*
X104090224Y-102657971D01*
X104090224Y-102657971D02*
X104090224Y-102443685D01*
X104090224Y-102443685D02*
X104161652Y-102157971D01*
X104161652Y-102157971D02*
X104233081Y-102015114D01*
X104233081Y-102015114D02*
X104375938Y-101872257D01*
X104375938Y-101872257D02*
X104590224Y-101800828D01*
X104590224Y-101800828D02*
X104733081Y-101800828D01*
X104733081Y-101800828D02*
X104947367Y-101872257D01*
X104947367Y-101872257D02*
X105018795Y-101943685D01*
X105875938Y-103300828D02*
X105733081Y-103229400D01*
X105733081Y-103229400D02*
X105661652Y-103157971D01*
X105661652Y-103157971D02*
X105590224Y-103015114D01*
X105590224Y-103015114D02*
X105590224Y-102586542D01*
X105590224Y-102586542D02*
X105661652Y-102443685D01*
X105661652Y-102443685D02*
X105733081Y-102372257D01*
X105733081Y-102372257D02*
X105875938Y-102300828D01*
X105875938Y-102300828D02*
X106090224Y-102300828D01*
X106090224Y-102300828D02*
X106233081Y-102372257D01*
X106233081Y-102372257D02*
X106304510Y-102443685D01*
X106304510Y-102443685D02*
X106375938Y-102586542D01*
X106375938Y-102586542D02*
X106375938Y-103015114D01*
X106375938Y-103015114D02*
X106304510Y-103157971D01*
X106304510Y-103157971D02*
X106233081Y-103229400D01*
X106233081Y-103229400D02*
X106090224Y-103300828D01*
X106090224Y-103300828D02*
X105875938Y-103300828D01*
X107018795Y-102300828D02*
X107018795Y-103300828D01*
X107018795Y-102443685D02*
X107090224Y-102372257D01*
X107090224Y-102372257D02*
X107233081Y-102300828D01*
X107233081Y-102300828D02*
X107447367Y-102300828D01*
X107447367Y-102300828D02*
X107590224Y-102372257D01*
X107590224Y-102372257D02*
X107661653Y-102515114D01*
X107661653Y-102515114D02*
X107661653Y-103300828D01*
X108161653Y-102300828D02*
X108733081Y-102300828D01*
X108375938Y-101800828D02*
X108375938Y-103086542D01*
X108375938Y-103086542D02*
X108447367Y-103229400D01*
X108447367Y-103229400D02*
X108590224Y-103300828D01*
X108590224Y-103300828D02*
X108733081Y-103300828D01*
X109233081Y-103300828D02*
X109233081Y-102300828D01*
X109233081Y-102586542D02*
X109304510Y-102443685D01*
X109304510Y-102443685D02*
X109375939Y-102372257D01*
X109375939Y-102372257D02*
X109518796Y-102300828D01*
X109518796Y-102300828D02*
X109661653Y-102300828D01*
X110375938Y-103300828D02*
X110233081Y-103229400D01*
X110233081Y-103229400D02*
X110161652Y-103157971D01*
X110161652Y-103157971D02*
X110090224Y-103015114D01*
X110090224Y-103015114D02*
X110090224Y-102586542D01*
X110090224Y-102586542D02*
X110161652Y-102443685D01*
X110161652Y-102443685D02*
X110233081Y-102372257D01*
X110233081Y-102372257D02*
X110375938Y-102300828D01*
X110375938Y-102300828D02*
X110590224Y-102300828D01*
X110590224Y-102300828D02*
X110733081Y-102372257D01*
X110733081Y-102372257D02*
X110804510Y-102443685D01*
X110804510Y-102443685D02*
X110875938Y-102586542D01*
X110875938Y-102586542D02*
X110875938Y-103015114D01*
X110875938Y-103015114D02*
X110804510Y-103157971D01*
X110804510Y-103157971D02*
X110733081Y-103229400D01*
X110733081Y-103229400D02*
X110590224Y-103300828D01*
X110590224Y-103300828D02*
X110375938Y-103300828D01*
X111733081Y-103300828D02*
X111590224Y-103229400D01*
X111590224Y-103229400D02*
X111518795Y-103086542D01*
X111518795Y-103086542D02*
X111518795Y-101800828D01*
X112518795Y-103300828D02*
X112375938Y-103229400D01*
X112375938Y-103229400D02*
X112304509Y-103086542D01*
X112304509Y-103086542D02*
X112304509Y-101800828D01*
X113661652Y-103229400D02*
X113518795Y-103300828D01*
X113518795Y-103300828D02*
X113233081Y-103300828D01*
X113233081Y-103300828D02*
X113090223Y-103229400D01*
X113090223Y-103229400D02*
X113018795Y-103086542D01*
X113018795Y-103086542D02*
X113018795Y-102515114D01*
X113018795Y-102515114D02*
X113090223Y-102372257D01*
X113090223Y-102372257D02*
X113233081Y-102300828D01*
X113233081Y-102300828D02*
X113518795Y-102300828D01*
X113518795Y-102300828D02*
X113661652Y-102372257D01*
X113661652Y-102372257D02*
X113733081Y-102515114D01*
X113733081Y-102515114D02*
X113733081Y-102657971D01*
X113733081Y-102657971D02*
X113018795Y-102800828D01*
X114375937Y-103300828D02*
X114375937Y-102300828D01*
X114375937Y-102586542D02*
X114447366Y-102443685D01*
X114447366Y-102443685D02*
X114518795Y-102372257D01*
X114518795Y-102372257D02*
X114661652Y-102300828D01*
X114661652Y-102300828D02*
X114804509Y-102300828D01*
D13*
X146424819Y-89318094D02*
X145424819Y-89318094D01*
X145424819Y-89318094D02*
X145424819Y-89079999D01*
X145424819Y-89079999D02*
X145472438Y-88937142D01*
X145472438Y-88937142D02*
X145567676Y-88841904D01*
X145567676Y-88841904D02*
X145662914Y-88794285D01*
X145662914Y-88794285D02*
X145853390Y-88746666D01*
X145853390Y-88746666D02*
X145996247Y-88746666D01*
X145996247Y-88746666D02*
X146186723Y-88794285D01*
X146186723Y-88794285D02*
X146281961Y-88841904D01*
X146281961Y-88841904D02*
X146377200Y-88937142D01*
X146377200Y-88937142D02*
X146424819Y-89079999D01*
X146424819Y-89079999D02*
X146424819Y-89318094D01*
X145424819Y-88413332D02*
X145424819Y-87794285D01*
X145424819Y-87794285D02*
X145805771Y-88127618D01*
X145805771Y-88127618D02*
X145805771Y-87984761D01*
X145805771Y-87984761D02*
X145853390Y-87889523D01*
X145853390Y-87889523D02*
X145901009Y-87841904D01*
X145901009Y-87841904D02*
X145996247Y-87794285D01*
X145996247Y-87794285D02*
X146234342Y-87794285D01*
X146234342Y-87794285D02*
X146329580Y-87841904D01*
X146329580Y-87841904D02*
X146377200Y-87889523D01*
X146377200Y-87889523D02*
X146424819Y-87984761D01*
X146424819Y-87984761D02*
X146424819Y-88270475D01*
X146424819Y-88270475D02*
X146377200Y-88365713D01*
X146377200Y-88365713D02*
X146329580Y-88413332D01*
X146054819Y-83761904D02*
X145054819Y-83761904D01*
X146054819Y-83190476D02*
X145483390Y-83619047D01*
X145054819Y-83190476D02*
X145626247Y-83761904D01*
X125238095Y-80004819D02*
X125238095Y-80814342D01*
X125238095Y-80814342D02*
X125285714Y-80909580D01*
X125285714Y-80909580D02*
X125333333Y-80957200D01*
X125333333Y-80957200D02*
X125428571Y-81004819D01*
X125428571Y-81004819D02*
X125619047Y-81004819D01*
X125619047Y-81004819D02*
X125714285Y-80957200D01*
X125714285Y-80957200D02*
X125761904Y-80909580D01*
X125761904Y-80909580D02*
X125809523Y-80814342D01*
X125809523Y-80814342D02*
X125809523Y-80004819D01*
X126809523Y-81004819D02*
X126238095Y-81004819D01*
X126523809Y-81004819D02*
X126523809Y-80004819D01*
X126523809Y-80004819D02*
X126428571Y-80147676D01*
X126428571Y-80147676D02*
X126333333Y-80242914D01*
X126333333Y-80242914D02*
X126238095Y-80290533D01*
X125583333Y-99609580D02*
X125535714Y-99657200D01*
X125535714Y-99657200D02*
X125392857Y-99704819D01*
X125392857Y-99704819D02*
X125297619Y-99704819D01*
X125297619Y-99704819D02*
X125154762Y-99657200D01*
X125154762Y-99657200D02*
X125059524Y-99561961D01*
X125059524Y-99561961D02*
X125011905Y-99466723D01*
X125011905Y-99466723D02*
X124964286Y-99276247D01*
X124964286Y-99276247D02*
X124964286Y-99133390D01*
X124964286Y-99133390D02*
X125011905Y-98942914D01*
X125011905Y-98942914D02*
X125059524Y-98847676D01*
X125059524Y-98847676D02*
X125154762Y-98752438D01*
X125154762Y-98752438D02*
X125297619Y-98704819D01*
X125297619Y-98704819D02*
X125392857Y-98704819D01*
X125392857Y-98704819D02*
X125535714Y-98752438D01*
X125535714Y-98752438D02*
X125583333Y-98800057D01*
X126535714Y-99704819D02*
X125964286Y-99704819D01*
X126250000Y-99704819D02*
X126250000Y-98704819D01*
X126250000Y-98704819D02*
X126154762Y-98847676D01*
X126154762Y-98847676D02*
X126059524Y-98942914D01*
X126059524Y-98942914D02*
X125964286Y-98990533D01*
X103859580Y-77548989D02*
X103907200Y-77596608D01*
X103907200Y-77596608D02*
X103954819Y-77739465D01*
X103954819Y-77739465D02*
X103954819Y-77834703D01*
X103954819Y-77834703D02*
X103907200Y-77977560D01*
X103907200Y-77977560D02*
X103811961Y-78072798D01*
X103811961Y-78072798D02*
X103716723Y-78120417D01*
X103716723Y-78120417D02*
X103526247Y-78168036D01*
X103526247Y-78168036D02*
X103383390Y-78168036D01*
X103383390Y-78168036D02*
X103192914Y-78120417D01*
X103192914Y-78120417D02*
X103097676Y-78072798D01*
X103097676Y-78072798D02*
X103002438Y-77977560D01*
X103002438Y-77977560D02*
X102954819Y-77834703D01*
X102954819Y-77834703D02*
X102954819Y-77739465D01*
X102954819Y-77739465D02*
X103002438Y-77596608D01*
X103002438Y-77596608D02*
X103050057Y-77548989D01*
X102954819Y-77215655D02*
X102954819Y-76596608D01*
X102954819Y-76596608D02*
X103335771Y-76929941D01*
X103335771Y-76929941D02*
X103335771Y-76787084D01*
X103335771Y-76787084D02*
X103383390Y-76691846D01*
X103383390Y-76691846D02*
X103431009Y-76644227D01*
X103431009Y-76644227D02*
X103526247Y-76596608D01*
X103526247Y-76596608D02*
X103764342Y-76596608D01*
X103764342Y-76596608D02*
X103859580Y-76644227D01*
X103859580Y-76644227D02*
X103907200Y-76691846D01*
X103907200Y-76691846D02*
X103954819Y-76787084D01*
X103954819Y-76787084D02*
X103954819Y-77072798D01*
X103954819Y-77072798D02*
X103907200Y-77168036D01*
X103907200Y-77168036D02*
X103859580Y-77215655D01*
X82454819Y-91788333D02*
X83169104Y-91788333D01*
X83169104Y-91788333D02*
X83311961Y-91835952D01*
X83311961Y-91835952D02*
X83407200Y-91931190D01*
X83407200Y-91931190D02*
X83454819Y-92074047D01*
X83454819Y-92074047D02*
X83454819Y-92169285D01*
X83454819Y-90788333D02*
X83454819Y-91359761D01*
X83454819Y-91074047D02*
X82454819Y-91074047D01*
X82454819Y-91074047D02*
X82597676Y-91169285D01*
X82597676Y-91169285D02*
X82692914Y-91264523D01*
X82692914Y-91264523D02*
X82740533Y-91359761D01*
X107674819Y-95238094D02*
X106674819Y-95238094D01*
X106674819Y-95238094D02*
X106674819Y-94999999D01*
X106674819Y-94999999D02*
X106722438Y-94857142D01*
X106722438Y-94857142D02*
X106817676Y-94761904D01*
X106817676Y-94761904D02*
X106912914Y-94714285D01*
X106912914Y-94714285D02*
X107103390Y-94666666D01*
X107103390Y-94666666D02*
X107246247Y-94666666D01*
X107246247Y-94666666D02*
X107436723Y-94714285D01*
X107436723Y-94714285D02*
X107531961Y-94761904D01*
X107531961Y-94761904D02*
X107627200Y-94857142D01*
X107627200Y-94857142D02*
X107674819Y-94999999D01*
X107674819Y-94999999D02*
X107674819Y-95238094D01*
X107674819Y-93714285D02*
X107674819Y-94285713D01*
X107674819Y-93999999D02*
X106674819Y-93999999D01*
X106674819Y-93999999D02*
X106817676Y-94095237D01*
X106817676Y-94095237D02*
X106912914Y-94190475D01*
X106912914Y-94190475D02*
X106960533Y-94285713D01*
X107304819Y-89681904D02*
X106304819Y-89681904D01*
X107304819Y-89110476D02*
X106733390Y-89539047D01*
X106304819Y-89110476D02*
X106876247Y-89681904D01*
X109234819Y-95238094D02*
X108234819Y-95238094D01*
X108234819Y-95238094D02*
X108234819Y-94999999D01*
X108234819Y-94999999D02*
X108282438Y-94857142D01*
X108282438Y-94857142D02*
X108377676Y-94761904D01*
X108377676Y-94761904D02*
X108472914Y-94714285D01*
X108472914Y-94714285D02*
X108663390Y-94666666D01*
X108663390Y-94666666D02*
X108806247Y-94666666D01*
X108806247Y-94666666D02*
X108996723Y-94714285D01*
X108996723Y-94714285D02*
X109091961Y-94761904D01*
X109091961Y-94761904D02*
X109187200Y-94857142D01*
X109187200Y-94857142D02*
X109234819Y-94999999D01*
X109234819Y-94999999D02*
X109234819Y-95238094D01*
X108330057Y-94285713D02*
X108282438Y-94238094D01*
X108282438Y-94238094D02*
X108234819Y-94142856D01*
X108234819Y-94142856D02*
X108234819Y-93904761D01*
X108234819Y-93904761D02*
X108282438Y-93809523D01*
X108282438Y-93809523D02*
X108330057Y-93761904D01*
X108330057Y-93761904D02*
X108425295Y-93714285D01*
X108425295Y-93714285D02*
X108520533Y-93714285D01*
X108520533Y-93714285D02*
X108663390Y-93761904D01*
X108663390Y-93761904D02*
X109234819Y-94333332D01*
X109234819Y-94333332D02*
X109234819Y-93714285D01*
X109604819Y-99841904D02*
X108604819Y-99841904D01*
X109604819Y-99270476D02*
X109033390Y-99699047D01*
X108604819Y-99270476D02*
X109176247Y-99841904D01*
X84491905Y-92994819D02*
X84491905Y-91994819D01*
X84491905Y-91994819D02*
X84730000Y-91994819D01*
X84730000Y-91994819D02*
X84872857Y-92042438D01*
X84872857Y-92042438D02*
X84968095Y-92137676D01*
X84968095Y-92137676D02*
X85015714Y-92232914D01*
X85015714Y-92232914D02*
X85063333Y-92423390D01*
X85063333Y-92423390D02*
X85063333Y-92566247D01*
X85063333Y-92566247D02*
X85015714Y-92756723D01*
X85015714Y-92756723D02*
X84968095Y-92851961D01*
X84968095Y-92851961D02*
X84872857Y-92947200D01*
X84872857Y-92947200D02*
X84730000Y-92994819D01*
X84730000Y-92994819D02*
X84491905Y-92994819D01*
X85920476Y-92328152D02*
X85920476Y-92994819D01*
X85682381Y-91947200D02*
X85444286Y-92661485D01*
X85444286Y-92661485D02*
X86063333Y-92661485D01*
X141359580Y-100166666D02*
X141407200Y-100214285D01*
X141407200Y-100214285D02*
X141454819Y-100357142D01*
X141454819Y-100357142D02*
X141454819Y-100452380D01*
X141454819Y-100452380D02*
X141407200Y-100595237D01*
X141407200Y-100595237D02*
X141311961Y-100690475D01*
X141311961Y-100690475D02*
X141216723Y-100738094D01*
X141216723Y-100738094D02*
X141026247Y-100785713D01*
X141026247Y-100785713D02*
X140883390Y-100785713D01*
X140883390Y-100785713D02*
X140692914Y-100738094D01*
X140692914Y-100738094D02*
X140597676Y-100690475D01*
X140597676Y-100690475D02*
X140502438Y-100595237D01*
X140502438Y-100595237D02*
X140454819Y-100452380D01*
X140454819Y-100452380D02*
X140454819Y-100357142D01*
X140454819Y-100357142D02*
X140502438Y-100214285D01*
X140502438Y-100214285D02*
X140550057Y-100166666D01*
X140550057Y-99785713D02*
X140502438Y-99738094D01*
X140502438Y-99738094D02*
X140454819Y-99642856D01*
X140454819Y-99642856D02*
X140454819Y-99404761D01*
X140454819Y-99404761D02*
X140502438Y-99309523D01*
X140502438Y-99309523D02*
X140550057Y-99261904D01*
X140550057Y-99261904D02*
X140645295Y-99214285D01*
X140645295Y-99214285D02*
X140740533Y-99214285D01*
X140740533Y-99214285D02*
X140883390Y-99261904D01*
X140883390Y-99261904D02*
X141454819Y-99833332D01*
X141454819Y-99833332D02*
X141454819Y-99214285D01*
X110254819Y-72095238D02*
X109778628Y-72428571D01*
X110254819Y-72666666D02*
X109254819Y-72666666D01*
X109254819Y-72666666D02*
X109254819Y-72285714D01*
X109254819Y-72285714D02*
X109302438Y-72190476D01*
X109302438Y-72190476D02*
X109350057Y-72142857D01*
X109350057Y-72142857D02*
X109445295Y-72095238D01*
X109445295Y-72095238D02*
X109588152Y-72095238D01*
X109588152Y-72095238D02*
X109683390Y-72142857D01*
X109683390Y-72142857D02*
X109731009Y-72190476D01*
X109731009Y-72190476D02*
X109778628Y-72285714D01*
X109778628Y-72285714D02*
X109778628Y-72666666D01*
X109254819Y-71809523D02*
X110254819Y-71476190D01*
X110254819Y-71476190D02*
X109254819Y-71142857D01*
X110254819Y-70285714D02*
X110254819Y-70857142D01*
X110254819Y-70571428D02*
X109254819Y-70571428D01*
X109254819Y-70571428D02*
X109397676Y-70666666D01*
X109397676Y-70666666D02*
X109492914Y-70761904D01*
X109492914Y-70761904D02*
X109540533Y-70857142D01*
X115534819Y-87166666D02*
X115058628Y-87499999D01*
X115534819Y-87738094D02*
X114534819Y-87738094D01*
X114534819Y-87738094D02*
X114534819Y-87357142D01*
X114534819Y-87357142D02*
X114582438Y-87261904D01*
X114582438Y-87261904D02*
X114630057Y-87214285D01*
X114630057Y-87214285D02*
X114725295Y-87166666D01*
X114725295Y-87166666D02*
X114868152Y-87166666D01*
X114868152Y-87166666D02*
X114963390Y-87214285D01*
X114963390Y-87214285D02*
X115011009Y-87261904D01*
X115011009Y-87261904D02*
X115058628Y-87357142D01*
X115058628Y-87357142D02*
X115058628Y-87738094D01*
X114630057Y-86785713D02*
X114582438Y-86738094D01*
X114582438Y-86738094D02*
X114534819Y-86642856D01*
X114534819Y-86642856D02*
X114534819Y-86404761D01*
X114534819Y-86404761D02*
X114582438Y-86309523D01*
X114582438Y-86309523D02*
X114630057Y-86261904D01*
X114630057Y-86261904D02*
X114725295Y-86214285D01*
X114725295Y-86214285D02*
X114820533Y-86214285D01*
X114820533Y-86214285D02*
X114963390Y-86261904D01*
X114963390Y-86261904D02*
X115534819Y-86833332D01*
X115534819Y-86833332D02*
X115534819Y-86214285D01*
X95124819Y-94226666D02*
X94648628Y-94559999D01*
X95124819Y-94798094D02*
X94124819Y-94798094D01*
X94124819Y-94798094D02*
X94124819Y-94417142D01*
X94124819Y-94417142D02*
X94172438Y-94321904D01*
X94172438Y-94321904D02*
X94220057Y-94274285D01*
X94220057Y-94274285D02*
X94315295Y-94226666D01*
X94315295Y-94226666D02*
X94458152Y-94226666D01*
X94458152Y-94226666D02*
X94553390Y-94274285D01*
X94553390Y-94274285D02*
X94601009Y-94321904D01*
X94601009Y-94321904D02*
X94648628Y-94417142D01*
X94648628Y-94417142D02*
X94648628Y-94798094D01*
X94124819Y-93893332D02*
X94124819Y-93274285D01*
X94124819Y-93274285D02*
X94505771Y-93607618D01*
X94505771Y-93607618D02*
X94505771Y-93464761D01*
X94505771Y-93464761D02*
X94553390Y-93369523D01*
X94553390Y-93369523D02*
X94601009Y-93321904D01*
X94601009Y-93321904D02*
X94696247Y-93274285D01*
X94696247Y-93274285D02*
X94934342Y-93274285D01*
X94934342Y-93274285D02*
X95029580Y-93321904D01*
X95029580Y-93321904D02*
X95077200Y-93369523D01*
X95077200Y-93369523D02*
X95124819Y-93464761D01*
X95124819Y-93464761D02*
X95124819Y-93750475D01*
X95124819Y-93750475D02*
X95077200Y-93845713D01*
X95077200Y-93845713D02*
X95029580Y-93893332D01*
X100374819Y-94226666D02*
X99898628Y-94559999D01*
X100374819Y-94798094D02*
X99374819Y-94798094D01*
X99374819Y-94798094D02*
X99374819Y-94417142D01*
X99374819Y-94417142D02*
X99422438Y-94321904D01*
X99422438Y-94321904D02*
X99470057Y-94274285D01*
X99470057Y-94274285D02*
X99565295Y-94226666D01*
X99565295Y-94226666D02*
X99708152Y-94226666D01*
X99708152Y-94226666D02*
X99803390Y-94274285D01*
X99803390Y-94274285D02*
X99851009Y-94321904D01*
X99851009Y-94321904D02*
X99898628Y-94417142D01*
X99898628Y-94417142D02*
X99898628Y-94798094D01*
X100374819Y-93274285D02*
X100374819Y-93845713D01*
X100374819Y-93559999D02*
X99374819Y-93559999D01*
X99374819Y-93559999D02*
X99517676Y-93655237D01*
X99517676Y-93655237D02*
X99612914Y-93750475D01*
X99612914Y-93750475D02*
X99660533Y-93845713D01*
X140192261Y-73950057D02*
X140097023Y-73902438D01*
X140097023Y-73902438D02*
X140001785Y-73807200D01*
X140001785Y-73807200D02*
X139858928Y-73664342D01*
X139858928Y-73664342D02*
X139763690Y-73616723D01*
X139763690Y-73616723D02*
X139668452Y-73616723D01*
X139716071Y-73854819D02*
X139620833Y-73807200D01*
X139620833Y-73807200D02*
X139525595Y-73711961D01*
X139525595Y-73711961D02*
X139477976Y-73521485D01*
X139477976Y-73521485D02*
X139477976Y-73188152D01*
X139477976Y-73188152D02*
X139525595Y-72997676D01*
X139525595Y-72997676D02*
X139620833Y-72902438D01*
X139620833Y-72902438D02*
X139716071Y-72854819D01*
X139716071Y-72854819D02*
X139906547Y-72854819D01*
X139906547Y-72854819D02*
X140001785Y-72902438D01*
X140001785Y-72902438D02*
X140097023Y-72997676D01*
X140097023Y-72997676D02*
X140144642Y-73188152D01*
X140144642Y-73188152D02*
X140144642Y-73521485D01*
X140144642Y-73521485D02*
X140097023Y-73711961D01*
X140097023Y-73711961D02*
X140001785Y-73807200D01*
X140001785Y-73807200D02*
X139906547Y-73854819D01*
X139906547Y-73854819D02*
X139716071Y-73854819D01*
X141097023Y-73854819D02*
X140525595Y-73854819D01*
X140811309Y-73854819D02*
X140811309Y-72854819D01*
X140811309Y-72854819D02*
X140716071Y-72997676D01*
X140716071Y-72997676D02*
X140620833Y-73092914D01*
X140620833Y-73092914D02*
X140525595Y-73140533D01*
X153204819Y-82128333D02*
X153919104Y-82128333D01*
X153919104Y-82128333D02*
X154061961Y-82175952D01*
X154061961Y-82175952D02*
X154157200Y-82271190D01*
X154157200Y-82271190D02*
X154204819Y-82414047D01*
X154204819Y-82414047D02*
X154204819Y-82509285D01*
X153300057Y-81699761D02*
X153252438Y-81652142D01*
X153252438Y-81652142D02*
X153204819Y-81556904D01*
X153204819Y-81556904D02*
X153204819Y-81318809D01*
X153204819Y-81318809D02*
X153252438Y-81223571D01*
X153252438Y-81223571D02*
X153300057Y-81175952D01*
X153300057Y-81175952D02*
X153395295Y-81128333D01*
X153395295Y-81128333D02*
X153490533Y-81128333D01*
X153490533Y-81128333D02*
X153633390Y-81175952D01*
X153633390Y-81175952D02*
X154204819Y-81747380D01*
X154204819Y-81747380D02*
X154204819Y-81128333D01*
%TO.C,D3*%
D14*
X143500000Y-84840000D02*
X143500000Y-85860000D01*
X143500000Y-92320000D02*
X143500000Y-91300000D01*
X144970000Y-86640000D02*
X142030000Y-86640000D01*
X144970000Y-86760000D02*
X142030000Y-86760000D01*
X144970000Y-86880000D02*
X142030000Y-86880000D01*
X142030000Y-85860000D02*
X144970000Y-85860000D01*
X144970000Y-91300000D01*
X142030000Y-91300000D01*
X142030000Y-85860000D01*
%TO.C,U1*%
X123350000Y-81550000D02*
X123350000Y-91830000D01*
X123350000Y-91830000D02*
X128650000Y-91830000D01*
X125000000Y-81550000D02*
X123350000Y-81550000D01*
X128650000Y-81550000D02*
X127000000Y-81550000D01*
X128650000Y-91830000D02*
X128650000Y-81550000D01*
X127000000Y-81550000D02*
G75*
G02*
X125000000Y-81550000I-1000000J0D01*
G01*
%TO.C,C1*%
X123280000Y-95380000D02*
X128220000Y-95380000D01*
X123280000Y-95710000D02*
X123280000Y-95380000D01*
X123280000Y-98120000D02*
X123280000Y-97790000D01*
X128220000Y-95380000D02*
X128220000Y-95710000D01*
X128220000Y-97790000D02*
X128220000Y-98120000D01*
X128220000Y-98120000D02*
X123280000Y-98120000D01*
%TO.C,C3*%
X96010000Y-78662323D02*
X92333000Y-78662323D01*
X96010000Y-78702323D02*
X92343000Y-78702323D01*
X96010000Y-78742323D02*
X92354000Y-78742323D01*
X96010000Y-78782323D02*
X92365000Y-78782323D01*
X96010000Y-78822323D02*
X92377000Y-78822323D01*
X96010000Y-78862323D02*
X92389000Y-78862323D01*
X96010000Y-78902323D02*
X92401000Y-78902323D01*
X96010000Y-78942323D02*
X92413000Y-78942323D01*
X96010000Y-78982323D02*
X92426000Y-78982323D01*
X96010000Y-79022323D02*
X92440000Y-79022323D01*
X96010000Y-79062323D02*
X92453000Y-79062323D01*
X96010000Y-79102323D02*
X92468000Y-79102323D01*
X96010000Y-79142323D02*
X92482000Y-79142323D01*
X96010000Y-79182323D02*
X92497000Y-79182323D01*
X96010000Y-79222323D02*
X92512000Y-79222323D01*
X96010000Y-79262323D02*
X92528000Y-79262323D01*
X96010000Y-79302323D02*
X92544000Y-79302323D01*
X96010000Y-79342323D02*
X92560000Y-79342323D01*
X96010000Y-79382323D02*
X92577000Y-79382323D01*
X96010000Y-79422323D02*
X92594000Y-79422323D01*
X96010000Y-79462323D02*
X92612000Y-79462323D01*
X96010000Y-79502323D02*
X92630000Y-79502323D01*
X96010000Y-79542323D02*
X92648000Y-79542323D01*
X96010000Y-79582323D02*
X92667000Y-79582323D01*
X96010000Y-79622323D02*
X92686000Y-79622323D01*
X96010000Y-79662323D02*
X92706000Y-79662323D01*
X96010000Y-79702323D02*
X92726000Y-79702323D01*
X96010000Y-79742323D02*
X92746000Y-79742323D01*
X96010000Y-79782323D02*
X92767000Y-79782323D01*
X96010000Y-79822323D02*
X92789000Y-79822323D01*
X96010000Y-79862323D02*
X92811000Y-79862323D01*
X96010000Y-79902323D02*
X92833000Y-79902323D01*
X96010000Y-79942323D02*
X92856000Y-79942323D01*
X96010000Y-79982323D02*
X92879000Y-79982323D01*
X96010000Y-80022323D02*
X92903000Y-80022323D01*
X96010000Y-80062323D02*
X92927000Y-80062323D01*
X96010000Y-80102323D02*
X92952000Y-80102323D01*
X96010000Y-80142323D02*
X92978000Y-80142323D01*
X96010000Y-80182323D02*
X93003000Y-80182323D01*
X96010000Y-80222323D02*
X93030000Y-80222323D01*
X96010000Y-80262323D02*
X93057000Y-80262323D01*
X96010000Y-80302323D02*
X93084000Y-80302323D01*
X96010000Y-80342323D02*
X93112000Y-80342323D01*
X96010000Y-80382323D02*
X93141000Y-80382323D01*
X96010000Y-80422323D02*
X93170000Y-80422323D01*
X96010000Y-80462323D02*
X93200000Y-80462323D01*
X96010000Y-80502323D02*
X93230000Y-80502323D01*
X96010000Y-80542323D02*
X93262000Y-80542323D01*
X96010000Y-80582323D02*
X93293000Y-80582323D01*
X96010000Y-80622323D02*
X93326000Y-80622323D01*
X96010000Y-80662323D02*
X93359000Y-80662323D01*
X96010000Y-80702323D02*
X93392000Y-80702323D01*
X96010000Y-80742323D02*
X93427000Y-80742323D01*
X96010000Y-80782323D02*
X93462000Y-80782323D01*
X96010000Y-80822323D02*
X93498000Y-80822323D01*
X96010000Y-80862323D02*
X93534000Y-80862323D01*
X96010000Y-80902323D02*
X93572000Y-80902323D01*
X96010000Y-80942323D02*
X93610000Y-80942323D01*
X96010000Y-80982323D02*
X93649000Y-80982323D01*
X96010000Y-81022323D02*
X93689000Y-81022323D01*
X96010000Y-81062323D02*
X93730000Y-81062323D01*
X96010000Y-81102323D02*
X93772000Y-81102323D01*
X97849000Y-82462323D02*
X96651000Y-82462323D01*
X98112000Y-82422323D02*
X96388000Y-82422323D01*
X98312000Y-82382323D02*
X96188000Y-82382323D01*
X98480000Y-82342323D02*
X96020000Y-82342323D01*
X98627000Y-82302323D02*
X95873000Y-82302323D01*
X98759000Y-82262323D02*
X95741000Y-82262323D01*
X98880000Y-82222323D02*
X95620000Y-82222323D01*
X98992000Y-82182323D02*
X95508000Y-82182323D01*
X99096000Y-82142323D02*
X95404000Y-82142323D01*
X99194000Y-82102323D02*
X95306000Y-82102323D01*
X99287000Y-82062323D02*
X95213000Y-82062323D01*
X99374000Y-82022323D02*
X95126000Y-82022323D01*
X99458000Y-81982323D02*
X95042000Y-81982323D01*
X99538000Y-81942323D02*
X94962000Y-81942323D01*
X99615000Y-81902323D02*
X94885000Y-81902323D01*
X99689000Y-81862323D02*
X94811000Y-81862323D01*
X99760000Y-81822323D02*
X94740000Y-81822323D01*
X99828000Y-81782323D02*
X94672000Y-81782323D01*
X99894000Y-81742323D02*
X94606000Y-81742323D01*
X99958000Y-81702323D02*
X94542000Y-81702323D01*
X100020000Y-81662323D02*
X94480000Y-81662323D01*
X100080000Y-81622323D02*
X94420000Y-81622323D01*
X100125000Y-71902677D02*
X100125000Y-72902677D01*
X100138000Y-81582323D02*
X94362000Y-81582323D01*
X100195000Y-81542323D02*
X94305000Y-81542323D01*
X100250000Y-81502323D02*
X94250000Y-81502323D01*
X100303000Y-81462323D02*
X94197000Y-81462323D01*
X100355000Y-81422323D02*
X94145000Y-81422323D01*
X100406000Y-81382323D02*
X94094000Y-81382323D01*
X100455000Y-81342323D02*
X94045000Y-81342323D01*
X100504000Y-81302323D02*
X93996000Y-81302323D01*
X100551000Y-81262323D02*
X93949000Y-81262323D01*
X100597000Y-81222323D02*
X93903000Y-81222323D01*
X100625000Y-72402677D02*
X99625000Y-72402677D01*
X100641000Y-81182323D02*
X93859000Y-81182323D01*
X100685000Y-81142323D02*
X93815000Y-81142323D01*
X100728000Y-81102323D02*
X98490000Y-81102323D01*
X100770000Y-81062323D02*
X98490000Y-81062323D01*
X100811000Y-81022323D02*
X98490000Y-81022323D01*
X100851000Y-80982323D02*
X98490000Y-80982323D01*
X100890000Y-80942323D02*
X98490000Y-80942323D01*
X100928000Y-80902323D02*
X98490000Y-80902323D01*
X100966000Y-80862323D02*
X98490000Y-80862323D01*
X101002000Y-80822323D02*
X98490000Y-80822323D01*
X101038000Y-80782323D02*
X98490000Y-80782323D01*
X101073000Y-80742323D02*
X98490000Y-80742323D01*
X101108000Y-80702323D02*
X98490000Y-80702323D01*
X101141000Y-80662323D02*
X98490000Y-80662323D01*
X101174000Y-80622323D02*
X98490000Y-80622323D01*
X101207000Y-80582323D02*
X98490000Y-80582323D01*
X101238000Y-80542323D02*
X98490000Y-80542323D01*
X101270000Y-80502323D02*
X98490000Y-80502323D01*
X101300000Y-80462323D02*
X98490000Y-80462323D01*
X101330000Y-80422323D02*
X98490000Y-80422323D01*
X101359000Y-80382323D02*
X98490000Y-80382323D01*
X101388000Y-80342323D02*
X98490000Y-80342323D01*
X101416000Y-80302323D02*
X98490000Y-80302323D01*
X101443000Y-80262323D02*
X98490000Y-80262323D01*
X101470000Y-80222323D02*
X98490000Y-80222323D01*
X101497000Y-80182323D02*
X98490000Y-80182323D01*
X101522000Y-80142323D02*
X98490000Y-80142323D01*
X101548000Y-80102323D02*
X98490000Y-80102323D01*
X101573000Y-80062323D02*
X98490000Y-80062323D01*
X101597000Y-80022323D02*
X98490000Y-80022323D01*
X101621000Y-79982323D02*
X98490000Y-79982323D01*
X101644000Y-79942323D02*
X98490000Y-79942323D01*
X101667000Y-79902323D02*
X98490000Y-79902323D01*
X101689000Y-79862323D02*
X98490000Y-79862323D01*
X101711000Y-79822323D02*
X98490000Y-79822323D01*
X101733000Y-79782323D02*
X98490000Y-79782323D01*
X101754000Y-79742323D02*
X98490000Y-79742323D01*
X101774000Y-79702323D02*
X98490000Y-79702323D01*
X101794000Y-79662323D02*
X98490000Y-79662323D01*
X101814000Y-79622323D02*
X98490000Y-79622323D01*
X101833000Y-79582323D02*
X98490000Y-79582323D01*
X101852000Y-79542323D02*
X98490000Y-79542323D01*
X101870000Y-79502323D02*
X98490000Y-79502323D01*
X101888000Y-79462323D02*
X98490000Y-79462323D01*
X101906000Y-79422323D02*
X98490000Y-79422323D01*
X101923000Y-79382323D02*
X98490000Y-79382323D01*
X101940000Y-79342323D02*
X98490000Y-79342323D01*
X101956000Y-79302323D02*
X98490000Y-79302323D01*
X101972000Y-79262323D02*
X98490000Y-79262323D01*
X101988000Y-79222323D02*
X98490000Y-79222323D01*
X102003000Y-79182323D02*
X98490000Y-79182323D01*
X102018000Y-79142323D02*
X98490000Y-79142323D01*
X102032000Y-79102323D02*
X98490000Y-79102323D01*
X102047000Y-79062323D02*
X98490000Y-79062323D01*
X102060000Y-79022323D02*
X98490000Y-79022323D01*
X102074000Y-78982323D02*
X98490000Y-78982323D01*
X102087000Y-78942323D02*
X98490000Y-78942323D01*
X102099000Y-78902323D02*
X98490000Y-78902323D01*
X102111000Y-78862323D02*
X98490000Y-78862323D01*
X102123000Y-78822323D02*
X98490000Y-78822323D01*
X102135000Y-78782323D02*
X98490000Y-78782323D01*
X102146000Y-78742323D02*
X98490000Y-78742323D01*
X102157000Y-78702323D02*
X98490000Y-78702323D01*
X102167000Y-78662323D02*
X98490000Y-78662323D01*
X102178000Y-78622323D02*
X92322000Y-78622323D01*
X102187000Y-78582323D02*
X92313000Y-78582323D01*
X102197000Y-78542323D02*
X92303000Y-78542323D01*
X102206000Y-78502323D02*
X92294000Y-78502323D01*
X102215000Y-78462323D02*
X92285000Y-78462323D01*
X102223000Y-78422323D02*
X92277000Y-78422323D01*
X102231000Y-78382323D02*
X92269000Y-78382323D01*
X102239000Y-78342323D02*
X92261000Y-78342323D01*
X102247000Y-78302323D02*
X92253000Y-78302323D01*
X102254000Y-78262323D02*
X92246000Y-78262323D01*
X102261000Y-78222323D02*
X92239000Y-78222323D01*
X102267000Y-78182323D02*
X92233000Y-78182323D01*
X102273000Y-78142323D02*
X92227000Y-78142323D01*
X102279000Y-78102323D02*
X92221000Y-78102323D01*
X102285000Y-78062323D02*
X92215000Y-78062323D01*
X102290000Y-78022323D02*
X92210000Y-78022323D01*
X102295000Y-77982323D02*
X92205000Y-77982323D01*
X102299000Y-77942323D02*
X92201000Y-77942323D01*
X102304000Y-77902323D02*
X92196000Y-77902323D01*
X102307000Y-77862323D02*
X92193000Y-77862323D01*
X102311000Y-77822323D02*
X92189000Y-77822323D01*
X102314000Y-77782323D02*
X92186000Y-77782323D01*
X102317000Y-77742323D02*
X92183000Y-77742323D01*
X102320000Y-77702323D02*
X92180000Y-77702323D01*
X102322000Y-77662323D02*
X92178000Y-77662323D01*
X102324000Y-77622323D02*
X92176000Y-77622323D01*
X102326000Y-77582323D02*
X92174000Y-77582323D01*
X102327000Y-77542323D02*
X92173000Y-77542323D01*
X102329000Y-77462323D02*
X92171000Y-77462323D01*
X102329000Y-77502323D02*
X92171000Y-77502323D01*
X102330000Y-77382323D02*
X92170000Y-77382323D01*
X102330000Y-77422323D02*
X92170000Y-77422323D01*
X102370000Y-77382323D02*
G75*
G02*
X92130000Y-77382323I-5120000J0D01*
G01*
X92130000Y-77382323D02*
G75*
G02*
X102370000Y-77382323I5120000J0D01*
G01*
%TO.C,J1*%
X79607500Y-79795000D02*
X89647500Y-79795000D01*
X79607500Y-82155000D02*
X79607500Y-79795000D01*
X79607500Y-90195000D02*
X79607500Y-82755000D01*
X80227500Y-79795000D02*
X80227500Y-90195000D01*
X81727500Y-79795000D02*
X81727500Y-90195000D01*
X86627500Y-79795000D02*
X86627500Y-90195000D01*
X89647500Y-79795000D02*
X89647500Y-90195000D01*
X89647500Y-90195000D02*
X79607500Y-90195000D01*
X79607500Y-82455000D02*
X78997500Y-82895000D01*
X78997500Y-82015000D01*
X79607500Y-82455000D01*
G36*
X79607500Y-82455000D02*
G01*
X78997500Y-82895000D01*
X78997500Y-82015000D01*
X79607500Y-82455000D01*
G37*
%TO.C,D1*%
X104750000Y-90760000D02*
X104750000Y-91780000D01*
X104750000Y-98240000D02*
X104750000Y-97220000D01*
X106220000Y-92560000D02*
X103280000Y-92560000D01*
X106220000Y-92680000D02*
X103280000Y-92680000D01*
X106220000Y-92800000D02*
X103280000Y-92800000D01*
X103280000Y-91780000D02*
X106220000Y-91780000D01*
X106220000Y-97220000D01*
X103280000Y-97220000D01*
X103280000Y-91780000D01*
%TO.C,D2*%
X109780000Y-96200000D02*
X112720000Y-96200000D01*
X109780000Y-96320000D02*
X112720000Y-96320000D01*
X109780000Y-96440000D02*
X112720000Y-96440000D01*
X111250000Y-90760000D02*
X111250000Y-91780000D01*
X111250000Y-98240000D02*
X111250000Y-97220000D01*
X109780000Y-91780000D02*
X112720000Y-91780000D01*
X112720000Y-97220000D01*
X109780000Y-97220000D01*
X109780000Y-91780000D01*
%TO.C,D4*%
X82670000Y-94955000D02*
X82670000Y-98045000D01*
X82670000Y-94955170D02*
G75*
G02*
X88220000Y-96500000I2560000J-1544830D01*
G01*
X88220000Y-96500000D02*
G75*
G02*
X82670000Y-98044830I-2990000J0D01*
G01*
X87730000Y-96500000D02*
G75*
G02*
X82730000Y-96500000I-2500000J0D01*
G01*
X82730000Y-96500000D02*
G75*
G02*
X87730000Y-96500000I2500000J0D01*
G01*
%TO.C,C2*%
X142130000Y-97530000D02*
X142460000Y-97530000D01*
X142130000Y-102470000D02*
X142130000Y-97530000D01*
X142460000Y-102470000D02*
X142130000Y-102470000D01*
X144540000Y-97530000D02*
X144870000Y-97530000D01*
X144870000Y-97530000D02*
X144870000Y-102470000D01*
X144870000Y-102470000D02*
X144540000Y-102470000D01*
%TO.C,RV1*%
X110930000Y-67580000D02*
X129070000Y-67580000D01*
X110930000Y-78320000D02*
X110930000Y-67580000D01*
X110930000Y-78320000D02*
X129070000Y-78320000D01*
X116380000Y-62580000D02*
X123620000Y-62580000D01*
X116380000Y-67580000D02*
X116380000Y-62580000D01*
X116880000Y-52580000D02*
X123120000Y-52580000D01*
X116880000Y-62580000D02*
X116880000Y-52580000D01*
X123120000Y-62580000D02*
X123120000Y-52580000D01*
X123620000Y-67580000D02*
X123620000Y-62580000D01*
X129070000Y-78320000D02*
X129070000Y-67580000D01*
%TO.C,R2*%
X117000000Y-84130000D02*
X117000000Y-85080000D01*
X117000000Y-89870000D02*
X117000000Y-88920000D01*
X116080000Y-85080000D02*
X117920000Y-85080000D01*
X117920000Y-88920000D01*
X116080000Y-88920000D01*
X116080000Y-85080000D01*
%TO.C,R3*%
X92750000Y-91190000D02*
X92750000Y-92140000D01*
X92750000Y-96930000D02*
X92750000Y-95980000D01*
X91830000Y-92140000D02*
X93670000Y-92140000D01*
X93670000Y-95980000D01*
X91830000Y-95980000D01*
X91830000Y-92140000D01*
%TO.C,R1*%
X98000000Y-91190000D02*
X98000000Y-92140000D01*
X98000000Y-96930000D02*
X98000000Y-95980000D01*
X97080000Y-92140000D02*
X98920000Y-92140000D01*
X98920000Y-95980000D01*
X97080000Y-95980000D01*
X97080000Y-92140000D01*
%TO.C,Q1*%
X135177500Y-74240000D02*
X145397500Y-74240000D01*
X135177500Y-75620000D02*
X145397500Y-75620000D01*
X135177500Y-78860000D02*
X135177500Y-74240000D01*
X138437500Y-74240000D02*
X138437500Y-75620000D01*
X142137500Y-74240000D02*
X142137500Y-75620000D01*
X145397500Y-74240000D02*
X145397500Y-78860000D01*
X145397500Y-78860000D02*
X135177500Y-78860000D01*
%TO.C,J2*%
X148602500Y-83305000D02*
X158642500Y-83305000D01*
X148602500Y-93705000D02*
X148602500Y-83305000D01*
X151622500Y-93705000D02*
X151622500Y-83305000D01*
X156522500Y-93705000D02*
X156522500Y-83305000D01*
X158022500Y-93705000D02*
X158022500Y-83305000D01*
X158642500Y-83305000D02*
X158642500Y-90745000D01*
X158642500Y-91345000D02*
X158642500Y-93705000D01*
X158642500Y-93705000D02*
X148602500Y-93705000D01*
X158642500Y-91045000D02*
X159252500Y-90605000D01*
X159252500Y-91485000D01*
X158642500Y-91045000D01*
G36*
X159252500Y-91485000D02*
G01*
X158642500Y-91045000D01*
X159252500Y-90605000D01*
X159252500Y-91485000D01*
G37*
%TD*%
M02*
