%TF.GenerationSoftware,KiCad,Pcbnew,10.0.3*%
%TF.CreationDate,2026-10-02T15:13:25-04:00*%
%TF.ProjectId,Motor_Speed_Controller,4d6f746f-725f-4537-9065-65645f436f6e,rev?*%
%TF.SameCoordinates,Original*%
%TF.FileFunction,Soldermask,Top*%
%TF.FilePolarity,Negative*%
%FSLAX46Y46*%
G04 Gerber Fmt 4.6, Leading zero omitted, Abs format (unit mm)*
G04 Created by KiCad (PCBNEW 10.0.3) date 2026-10-02 15:13:25*
%MOMM*%
%LPD*%
G01*
G04 APERTURE LIST*
G04 Aperture macros list*
%AMRoundRect*
0 Rectangle with rounded corners*
0 $1 Rounding radius*
0 $2 $3 $4 $5 $6 $7 $8 $9 X,Y pos of 4 corners*
0 Add a 4 corners polygon primitive as box body*
4,1,4,$2,$3,$4,$5,$6,$7,$8,$9,$2,$3,0*
0 Add four circle primitives for the rounded corners*
1,1,$1+$1,$2,$3*
1,1,$1+$1,$4,$5*
1,1,$1+$1,$6,$7*
1,1,$1+$1,$8,$9*
0 Add four rect primitives between the rounded corners*
20,1,$1+$1,$2,$3,$4,$5,0*
20,1,$1+$1,$4,$5,$6,$7,0*
20,1,$1+$1,$6,$7,$8,$9,0*
20,1,$1+$1,$8,$9,$2,$3,0*%
G04 Aperture macros list end*
%ADD10RoundRect,0.249999X-0.850001X0.850001X-0.850001X-0.850001X0.850001X-0.850001X0.850001X0.850001X0*%
%ADD11C,2.200000*%
%ADD12C,3.800000*%
%ADD13RoundRect,0.250000X-0.550000X-0.550000X0.550000X-0.550000X0.550000X0.550000X-0.550000X0.550000X0*%
%ADD14C,1.600000*%
%ADD15RoundRect,0.250000X-0.750000X0.750000X-0.750000X-0.750000X0.750000X-0.750000X0.750000X0.750000X0*%
%ADD16C,2.000000*%
%ADD17RoundRect,0.250000X-1.050000X1.050000X-1.050000X-1.050000X1.050000X-1.050000X1.050000X1.050000X0*%
%ADD18C,2.600000*%
%ADD19RoundRect,0.249999X0.850001X-0.850001X0.850001X0.850001X-0.850001X0.850001X-0.850001X-0.850001X0*%
%ADD20R,1.800000X1.800000*%
%ADD21C,1.800000*%
%ADD22R,3.000000X3.000000*%
%ADD23C,3.000000*%
%ADD24C,1.400000*%
%ADD25R,1.905000X2.000000*%
%ADD26O,1.905000X2.000000*%
%ADD27RoundRect,0.250000X1.050000X-1.050000X1.050000X1.050000X-1.050000X1.050000X-1.050000X-1.050000X0*%
G04 APERTURE END LIST*
D10*
%TO.C,D3*%
X143500000Y-83500000D03*
D11*
X143500000Y-93660000D03*
%TD*%
D12*
%TO.C,REF\u002A\u002A*%
X79000000Y-101500000D03*
%TD*%
D13*
%TO.C,U1*%
X122190000Y-82880000D03*
D14*
X122190000Y-85420000D03*
X122190000Y-87960000D03*
X122190000Y-90500000D03*
X129810000Y-90500000D03*
X129810000Y-87960000D03*
X129810000Y-85420000D03*
X129810000Y-82880000D03*
%TD*%
%TO.C,C1*%
X128250000Y-96750000D03*
X123250000Y-96750000D03*
%TD*%
D15*
%TO.C,C3*%
X97250000Y-74882323D03*
D16*
X97250000Y-79882323D03*
%TD*%
D12*
%TO.C,REF\u002A\u002A*%
X158000000Y-101500000D03*
%TD*%
D17*
%TO.C,J1*%
X84327500Y-82455000D03*
D18*
X84327500Y-87535000D03*
%TD*%
D10*
%TO.C,D1*%
X104750000Y-89420000D03*
D11*
X104750000Y-99580000D03*
%TD*%
D19*
%TO.C,D2*%
X111250000Y-99580000D03*
D11*
X111250000Y-89420000D03*
%TD*%
D20*
%TO.C,D4*%
X83960000Y-96500000D03*
D21*
X86500000Y-96500000D03*
%TD*%
D14*
%TO.C,C2*%
X143500000Y-102500000D03*
X143500000Y-97500000D03*
%TD*%
D22*
%TO.C,RV1*%
X125000000Y-71500000D03*
D23*
X120000000Y-71500000D03*
X115000000Y-71500000D03*
%TD*%
D12*
%TO.C,REF\u002A\u002A*%
X79000000Y-70000000D03*
%TD*%
D24*
%TO.C,R2*%
X117000000Y-90810000D03*
X117000000Y-83190000D03*
%TD*%
%TO.C,R3*%
X92750000Y-90250000D03*
X92750000Y-97870000D03*
%TD*%
%TO.C,R1*%
X98000000Y-90250000D03*
X98000000Y-97870000D03*
%TD*%
D12*
%TO.C,REF\u002A\u002A*%
X158000000Y-70000000D03*
%TD*%
D25*
%TO.C,Q1*%
X137747500Y-77500000D03*
D26*
X140287500Y-77500000D03*
X142827500Y-77500000D03*
%TD*%
D27*
%TO.C,J2*%
X153922500Y-91045000D03*
D18*
X153922500Y-85965000D03*
%TD*%
M02*
